<?xml version="1.0" encoding="UTF-8" standalone="no"?>
<!-- Created with Inkscape (http://www.inkscape.org/) -->

<svg
   version="1.1"
   id="svg1"
   width="864"
   height="548.50336"
   viewBox="0 0 864 548.50336"
   sodipodi:docname="Medium_Usage.svg"
   inkscape:version="1.4.2 (2aeb623e1d, 2025-05-12)"
   inkscape:export-filename="../cf21daa/Medium_Usage.pdf"
   inkscape:export-xdpi="300"
   inkscape:export-ydpi="300"
   xmlns:inkscape="http://www.inkscape.org/namespaces/inkscape"
   xmlns:sodipodi="http://sodipodi.sourceforge.net/DTD/sodipodi-0.dtd"
   xmlns="http://www.w3.org/2000/svg"
   xmlns:svg="http://www.w3.org/2000/svg">
  <defs
     id="defs1">
    <clipPath
       clipPathUnits="userSpaceOnUse"
       id="clipPath4">
      <path
         d="M 57.96,106.77067 H 635.04 V 400.08 H 57.96 Z"
         id="path4" />
    </clipPath>
    <clipPath
       clipPathUnits="userSpaceOnUse"
       id="clipPath6">
      <path
         d="M 57.96,106.77067 H 635.04 V 400.08 H 57.96 Z"
         id="path6" />
    </clipPath>
    <clipPath
       clipPathUnits="userSpaceOnUse"
       id="clipPath8">
      <path
         d="M 57.96,106.77067 H 635.04 V 400.08 H 57.96 Z"
         id="path8" />
    </clipPath>
    <clipPath
       clipPathUnits="userSpaceOnUse"
       id="clipPath10">
      <path
         d="M 57.96,106.77067 H 635.04 V 400.08 H 57.96 Z"
         id="path10" />
    </clipPath>
    <clipPath
       clipPathUnits="userSpaceOnUse"
       id="clipPath12">
      <path
         d="M 57.96,106.77067 H 635.04 V 400.08 H 57.96 Z"
         id="path12" />
    </clipPath>
    <clipPath
       clipPathUnits="userSpaceOnUse"
       id="clipPath14">
      <path
         d="M 57.96,106.77067 H 635.04 V 400.08 H 57.96 Z"
         id="path14" />
    </clipPath>
    <clipPath
       clipPathUnits="userSpaceOnUse"
       id="clipPath16">
      <path
         d="M 57.96,106.77067 H 635.04 V 400.08 H 57.96 Z"
         id="path16" />
    </clipPath>
    <clipPath
       clipPathUnits="userSpaceOnUse"
       id="clipPath18">
      <path
         d="M 57.96,106.77067 H 635.04 V 400.08 H 57.96 Z"
         id="path18" />
    </clipPath>
    <clipPath
       clipPathUnits="userSpaceOnUse"
       id="clipPath20">
      <path
         d="M 57.96,106.77067 H 635.04 V 400.08 H 57.96 Z"
         id="path20" />
    </clipPath>
    <clipPath
       clipPathUnits="userSpaceOnUse"
       id="clipPath22">
      <path
         d="M 57.96,106.77067 H 635.04 V 400.08 H 57.96 Z"
         id="path22" />
    </clipPath>
    <clipPath
       clipPathUnits="userSpaceOnUse"
       id="clipPath24">
      <path
         d="M 57.96,106.77067 H 635.04 V 400.08 H 57.96 Z"
         id="path24" />
    </clipPath>
    <clipPath
       clipPathUnits="userSpaceOnUse"
       id="clipPath26">
      <path
         d="M 57.96,106.77067 H 635.04 V 400.08 H 57.96 Z"
         id="path26" />
    </clipPath>
    <clipPath
       clipPathUnits="userSpaceOnUse"
       id="clipPath28">
      <path
         d="M 57.96,106.77067 H 635.04 V 400.08 H 57.96 Z"
         id="path28" />
    </clipPath>
    <clipPath
       clipPathUnits="userSpaceOnUse"
       id="clipPath30">
      <path
         d="M 57.96,106.77067 H 635.04 V 400.08 H 57.96 Z"
         id="path30" />
    </clipPath>
    <clipPath
       clipPathUnits="userSpaceOnUse"
       id="clipPath32">
      <path
         d="M 57.96,106.77067 H 635.04 V 400.08 H 57.96 Z"
         id="path32" />
    </clipPath>
    <clipPath
       clipPathUnits="userSpaceOnUse"
       id="clipPath34">
      <path
         d="M 57.96,106.77067 H 635.04 V 400.08 H 57.96 Z"
         id="path34" />
    </clipPath>
    <clipPath
       clipPathUnits="userSpaceOnUse"
       id="clipPath36">
      <path
         d="M 57.96,106.77067 H 635.04 V 400.08 H 57.96 Z"
         id="path36" />
    </clipPath>
    <clipPath
       clipPathUnits="userSpaceOnUse"
       id="clipPath38">
      <path
         d="M 57.96,106.77067 H 635.04 V 400.08 H 57.96 Z"
         id="path38" />
    </clipPath>
    <clipPath
       clipPathUnits="userSpaceOnUse"
       id="clipPath40">
      <path
         d="M 57.96,106.77067 H 635.04 V 400.08 H 57.96 Z"
         id="path40" />
    </clipPath>
    <clipPath
       clipPathUnits="userSpaceOnUse"
       id="clipPath42">
      <path
         d="M 57.96,106.77067 H 635.04 V 400.08 H 57.96 Z"
         id="path42" />
    </clipPath>
    <clipPath
       clipPathUnits="userSpaceOnUse"
       id="clipPath44">
      <path
         d="M 57.96,106.77067 H 635.04 V 400.08 H 57.96 Z"
         id="path44" />
    </clipPath>
    <clipPath
       clipPathUnits="userSpaceOnUse"
       id="clipPath46">
      <path
         d="M 57.96,106.77067 H 635.04 V 400.08 H 57.96 Z"
         id="path46" />
    </clipPath>
    <clipPath
       clipPathUnits="userSpaceOnUse"
       id="clipPath48">
      <path
         d="M 57.96,106.77067 H 635.04 V 400.08 H 57.96 Z"
         id="path48" />
    </clipPath>
    <clipPath
       clipPathUnits="userSpaceOnUse"
       id="clipPath50">
      <path
         d="M 57.96,106.77067 H 635.04 V 400.08 H 57.96 Z"
         id="path50" />
    </clipPath>
    <clipPath
       clipPathUnits="userSpaceOnUse"
       id="clipPath52">
      <path
         d="M 57.96,106.77067 H 635.04 V 400.08 H 57.96 Z"
         id="path52" />
    </clipPath>
    <clipPath
       clipPathUnits="userSpaceOnUse"
       id="clipPath54">
      <path
         d="M 57.96,106.77067 H 635.04 V 400.08 H 57.96 Z"
         id="path54" />
    </clipPath>
    <clipPath
       clipPathUnits="userSpaceOnUse"
       id="clipPath56">
      <path
         d="M 57.96,106.77067 H 635.04 V 400.08 H 57.96 Z"
         id="path56" />
    </clipPath>
    <clipPath
       clipPathUnits="userSpaceOnUse"
       id="clipPath58">
      <path
         d="M 57.96,106.77067 H 635.04 V 400.08 H 57.96 Z"
         id="path58" />
    </clipPath>
    <clipPath
       clipPathUnits="userSpaceOnUse"
       id="clipPath60">
      <path
         d="M 57.96,106.77067 H 635.04 V 400.08 H 57.96 Z"
         id="path60" />
    </clipPath>
    <clipPath
       clipPathUnits="userSpaceOnUse"
       id="clipPath62">
      <path
         d="M 57.96,106.77067 H 635.04 V 400.08 H 57.96 Z"
         id="path62" />
    </clipPath>
    <clipPath
       clipPathUnits="userSpaceOnUse"
       id="clipPath64">
      <path
         d="M 57.96,106.77067 H 635.04 V 400.08 H 57.96 Z"
         id="path64" />
    </clipPath>
    <clipPath
       clipPathUnits="userSpaceOnUse"
       id="clipPath66">
      <path
         d="M 57.96,106.77067 H 635.04 V 400.08 H 57.96 Z"
         id="path66" />
    </clipPath>
    <clipPath
       clipPathUnits="userSpaceOnUse"
       id="clipPath68">
      <path
         d="M 57.96,106.77067 H 635.04 V 400.08 H 57.96 Z"
         id="path68" />
    </clipPath>
  </defs>
  <sodipodi:namedview
     id="namedview1"
     pagecolor="#ffffff"
     bordercolor="#000000"
     borderopacity="0.25"
     inkscape:showpageshadow="2"
     inkscape:pageopacity="0.0"
     inkscape:pagecheckerboard="0"
     inkscape:deskcolor="#d1d1d1"
     inkscape:zoom="0.87283493"
     inkscape:cx="271.529"
     inkscape:cy="250.3337"
     inkscape:window-width="1920"
     inkscape:window-height="958"
     inkscape:window-x="0"
     inkscape:window-y="0"
     inkscape:window-maximized="1"
     inkscape:current-layer="g1">
    <inkscape:page
       x="0"
       y="0"
       inkscape:label="1"
       id="page1"
       width="864"
       height="548.50336"
       margin="0"
       bleed="0" />
  </sodipodi:namedview>
  <g
     id="g1"
     inkscape:groupmode="layer"
     inkscape:label="1"
     transform="translate(0,-27.496622)">
    <path
       id="path1"
       d="M 0,576 H 863.99998 V 27.496622 H 0 Z"
       style="fill:#ffffff;fill-opacity:1;fill-rule:nonzero;stroke:none;stroke-width:1.30112" />
    <path
       id="path2"
       d="M 57.96,106.77067 H 635.04 V 400.08 H 57.96 Z"
       style="fill:#ffffff;fill-opacity:1;fill-rule:nonzero;stroke:none"
       transform="matrix(1.3333333,0,0,-1.3333333,0,576)" />
    <path
       id="path3"
       d="M 94.0275,106.77067 V 400.08"
       style="fill:none;stroke:#cccccc;stroke-width:1;stroke-linecap:round;stroke-linejoin:round;stroke-miterlimit:10;stroke-dasharray:none;stroke-opacity:1"
       transform="matrix(1.3333333,0,0,-1.3333333,0,576)"
       clip-path="url(#clipPath4)" />
    <text
       id="text4"
       xml:space="preserve"
       transform="matrix(0.94280904,-0.94280904,0.94280904,0.94280904,71.762467,507.20534)"><tspan
         id="tspan4"
         style="font-variant:normal;font-weight:normal;font-size:14px;font-family:'DejaVu Sans';writing-mode:lr-tb;fill:#262626;fill-opacity:1;fill-rule:nonzero;stroke:none"
         x="0"
         y="0">Oxygen</tspan></text>
    <path
       id="path5"
       d="M 166.1625,106.77067 V 400.08"
       style="fill:none;stroke:#cccccc;stroke-width:1;stroke-linecap:round;stroke-linejoin:round;stroke-miterlimit:10;stroke-dasharray:none;stroke-opacity:1"
       transform="matrix(1.3333333,0,0,-1.3333333,0,576)"
       clip-path="url(#clipPath6)" />
    <text
       id="text6"
       xml:space="preserve"
       transform="matrix(0.94280904,-0.94280904,0.94280904,0.94280904,142.72233,532.42548)"><tspan
         id="tspan6"
         style="font-variant:normal;font-weight:normal;font-size:14px;font-family:'DejaVu Sans';writing-mode:lr-tb;fill:#262626;fill-opacity:1;fill-rule:nonzero;stroke:none"
         x="0"
         y="0">Ammonium</tspan></text>
    <path
       id="path7"
       d="M 238.2975,106.77067 V 400.08"
       style="fill:none;stroke:#cccccc;stroke-width:1;stroke-linecap:round;stroke-linejoin:round;stroke-miterlimit:10;stroke-dasharray:none;stroke-opacity:1"
       transform="matrix(1.3333333,0,0,-1.3333333,0,576)"
       clip-path="url(#clipPath8)" />
    <text
       id="text8"
       xml:space="preserve"
       transform="matrix(0.94280904,-0.94280904,0.94280904,0.94280904,272.40151,498.9263)"><tspan
         id="tspan8"
         style="font-variant:normal;font-weight:normal;font-size:14px;font-family:'DejaVu Sans';writing-mode:lr-tb;fill:#262626;fill-opacity:1;fill-rule:nonzero;stroke:none"
         x="0"
         dx="0 -0.234375 -0.296875"
         y="0">Proton</tspan></text>
    <path
       id="path9"
       d="M 310.4325,106.77067 V 400.08"
       style="fill:none;stroke:#cccccc;stroke-width:1;stroke-linecap:round;stroke-linejoin:round;stroke-miterlimit:10;stroke-dasharray:none;stroke-opacity:1"
       transform="matrix(1.3333333,0,0,-1.3333333,0,576)"
       clip-path="url(#clipPath10)" />
    <text
       id="text10"
       xml:space="preserve"
       transform="matrix(0.94280904,-0.94280904,0.94280904,0.94280904,336.68805,530.81976)"><tspan
         id="tspan10"
         style="font-variant:normal;font-weight:normal;font-size:14px;font-family:'DejaVu Sans';writing-mode:lr-tb;fill:#262626;fill-opacity:1;fill-rule:nonzero;stroke:none"
         x="0"
         dx="0 0 -0.296875 0 0 0 0 -0.765625"
         y="0">Iron (Fe3+)</tspan></text>
    <path
       id="path11"
       d="M 382.5675,106.77067 V 400.08"
       style="fill:none;stroke:#cccccc;stroke-width:1;stroke-linecap:round;stroke-linejoin:round;stroke-miterlimit:10;stroke-dasharray:none;stroke-opacity:1"
       transform="matrix(1.3333333,0,0,-1.3333333,0,576)"
       clip-path="url(#clipPath12)" />
    <text
       id="text12"
       xml:space="preserve"
       transform="matrix(0.94280904,-0.94280904,0.94280904,0.94280904,432.86805,530.81976)"><tspan
         id="tspan12"
         style="font-variant:normal;font-weight:normal;font-size:14px;font-family:'DejaVu Sans';writing-mode:lr-tb;fill:#262626;fill-opacity:1;fill-rule:nonzero;stroke:none"
         x="0"
         dx="0 0 -0.296875 0 0 0 0 -0.765625"
         y="0">Iron (Fe2+)</tspan></text>
    <path
       id="path13"
       d="M 454.7025,106.77067 V 400.08"
       style="fill:none;stroke:#cccccc;stroke-width:1;stroke-linecap:round;stroke-linejoin:round;stroke-miterlimit:10;stroke-dasharray:none;stroke-opacity:1"
       transform="matrix(1.3333333,0,0,-1.3333333,0,576)"
       clip-path="url(#clipPath14)" />
    <text
       id="text14"
       xml:space="preserve"
       transform="matrix(0.94280904,-0.94280904,0.94280904,0.94280904,557.08188,502.78592)"><tspan
         id="tspan14"
         style="font-variant:normal;font-weight:normal;font-size:14px;font-family:'DejaVu Sans';writing-mode:lr-tb;fill:#262626;fill-opacity:1;fill-rule:nonzero;stroke:none"
         x="0"
         y="0">Sulfate</tspan></text>
    <path
       id="path15"
       d="M 526.8375,106.77067 V 400.08"
       style="fill:none;stroke:#cccccc;stroke-width:1;stroke-linecap:round;stroke-linejoin:round;stroke-miterlimit:10;stroke-dasharray:none;stroke-opacity:1"
       transform="matrix(1.3333333,0,0,-1.3333333,0,576)"
       clip-path="url(#clipPath16)" />
    <text
       id="text16"
       xml:space="preserve"
       transform="matrix(0.94280904,-0.94280904,0.94280904,0.94280904,632.24019,523.80762)"><tspan
         id="tspan16"
         style="font-variant:normal;font-weight:normal;font-size:14px;font-family:'DejaVu Sans';writing-mode:lr-tb;fill:#262626;fill-opacity:1;fill-rule:nonzero;stroke:none"
         x="0"
         dx="0 -0.5"
         y="0">Potassium</tspan></text>
    <path
       id="path17"
       d="M 598.9725,106.77067 V 400.08"
       style="fill:none;stroke:#cccccc;stroke-width:1;stroke-linecap:round;stroke-linejoin:round;stroke-miterlimit:10;stroke-dasharray:none;stroke-opacity:1"
       transform="matrix(1.3333333,0,0,-1.3333333,0,576)"
       clip-path="url(#clipPath18)" />
    <text
       id="text18"
       xml:space="preserve"
       transform="matrix(0.94280904,-0.94280904,0.94280904,0.94280904,726.49038,525.73743)"><tspan
         id="tspan18"
         style="font-variant:normal;font-weight:normal;font-size:14px;font-family:'DejaVu Sans';writing-mode:lr-tb;fill:#262626;fill-opacity:1;fill-rule:nonzero;stroke:none"
         x="0"
         y="0">Phosphate</tspan></text>
    <text
       id="text19"
       xml:space="preserve"
       x="349.4473"
       y="565.38226"
       style="font-size:17.6px;stroke-width:1.46666"><tspan
         id="tspan19"
         style="font-variant:normal;font-weight:normal;font-size:20.5334px;font-family:'DejaVu Sans';writing-mode:lr-tb;fill:#262626;fill-opacity:1;fill-rule:nonzero;stroke:none;stroke-width:1.46666"
         x="349.4473"
         y="565.38226">Metabolite in medium</tspan></text>
    <path
       id="path19"
       d="M 57.96,106.77067 H 635.04"
       style="fill:none;stroke:#cccccc;stroke-width:1;stroke-linecap:round;stroke-linejoin:round;stroke-miterlimit:10;stroke-dasharray:none;stroke-opacity:1"
       transform="matrix(1.3333333,0,0,-1.3333333,0,576)"
       clip-path="url(#clipPath20)" />
    <text
       id="text20"
       xml:space="preserve"
       transform="matrix(1.3333333,0,0,1.3333333,52.738333,440.73285)"><tspan
         id="tspan20"
         style="font-variant:normal;font-weight:normal;font-size:14px;font-family:'DejaVu Sans';writing-mode:lr-tb;fill:#262626;fill-opacity:1;fill-rule:nonzero;stroke:none"
         x="0"
         y="0">0</tspan></text>
    <path
       id="path21"
       d="M 57.96,142.00559 H 635.04"
       style="fill:none;stroke:#cccccc;stroke-width:1;stroke-linecap:round;stroke-linejoin:round;stroke-miterlimit:10;stroke-dasharray:none;stroke-opacity:1"
       transform="matrix(1.3333333,0,0,-1.3333333,0,576)"
       clip-path="url(#clipPath22)" />
    <text
       id="text22"
       xml:space="preserve"
       transform="matrix(1.3333333,0,0,1.3333333,40.863333,393.75296)"><tspan
         id="tspan22"
         style="font-variant:normal;font-weight:normal;font-size:14px;font-family:'DejaVu Sans';writing-mode:lr-tb;fill:#262626;fill-opacity:1;fill-rule:nonzero;stroke:none"
         x="0"
         y="0">10</tspan></text>
    <path
       id="path23"
       d="M 57.96,177.24051 H 635.04"
       style="fill:none;stroke:#cccccc;stroke-width:1;stroke-linecap:round;stroke-linejoin:round;stroke-miterlimit:10;stroke-dasharray:none;stroke-opacity:1"
       transform="matrix(1.3333333,0,0,-1.3333333,0,576)"
       clip-path="url(#clipPath24)" />
    <text
       id="text24"
       xml:space="preserve"
       transform="matrix(1.3333333,0,0,1.3333333,40.863333,346.77307)"><tspan
         id="tspan24"
         style="font-variant:normal;font-weight:normal;font-size:14px;font-family:'DejaVu Sans';writing-mode:lr-tb;fill:#262626;fill-opacity:1;fill-rule:nonzero;stroke:none"
         x="0"
         y="0">20</tspan></text>
    <path
       id="path25"
       d="M 57.96,212.47543 H 635.04"
       style="fill:none;stroke:#cccccc;stroke-width:1;stroke-linecap:round;stroke-linejoin:round;stroke-miterlimit:10;stroke-dasharray:none;stroke-opacity:1"
       transform="matrix(1.3333333,0,0,-1.3333333,0,576)"
       clip-path="url(#clipPath26)" />
    <text
       id="text26"
       xml:space="preserve"
       transform="matrix(1.3333333,0,0,1.3333333,40.863333,299.79318)"><tspan
         id="tspan26"
         style="font-variant:normal;font-weight:normal;font-size:14px;font-family:'DejaVu Sans';writing-mode:lr-tb;fill:#262626;fill-opacity:1;fill-rule:nonzero;stroke:none"
         x="0"
         y="0">30</tspan></text>
    <path
       id="path27"
       d="M 57.96,247.71035 H 635.04"
       style="fill:none;stroke:#cccccc;stroke-width:1;stroke-linecap:round;stroke-linejoin:round;stroke-miterlimit:10;stroke-dasharray:none;stroke-opacity:1"
       transform="matrix(1.3333333,0,0,-1.3333333,0,576)"
       clip-path="url(#clipPath28)" />
    <text
       id="text28"
       xml:space="preserve"
       transform="matrix(1.3333333,0,0,1.3333333,40.863333,252.81328)"><tspan
         id="tspan28"
         style="font-variant:normal;font-weight:normal;font-size:14px;font-family:'DejaVu Sans';writing-mode:lr-tb;fill:#262626;fill-opacity:1;fill-rule:nonzero;stroke:none"
         x="0"
         y="0">40</tspan></text>
    <path
       id="path29"
       d="M 57.96,282.94527 H 635.04"
       style="fill:none;stroke:#cccccc;stroke-width:1;stroke-linecap:round;stroke-linejoin:round;stroke-miterlimit:10;stroke-dasharray:none;stroke-opacity:1"
       transform="matrix(1.3333333,0,0,-1.3333333,0,576)"
       clip-path="url(#clipPath30)" />
    <text
       id="text30"
       xml:space="preserve"
       transform="matrix(1.3333333,0,0,1.3333333,40.863333,205.83339)"><tspan
         id="tspan30"
         style="font-variant:normal;font-weight:normal;font-size:14px;font-family:'DejaVu Sans';writing-mode:lr-tb;fill:#262626;fill-opacity:1;fill-rule:nonzero;stroke:none"
         x="0"
         y="0">50</tspan></text>
    <path
       id="path31"
       d="M 57.96,318.18019 H 635.04"
       style="fill:none;stroke:#cccccc;stroke-width:1;stroke-linecap:round;stroke-linejoin:round;stroke-miterlimit:10;stroke-dasharray:none;stroke-opacity:1"
       transform="matrix(1.3333333,0,0,-1.3333333,0,576)"
       clip-path="url(#clipPath32)" />
    <text
       id="text32"
       xml:space="preserve"
       transform="matrix(1.3333333,0,0,1.3333333,40.863333,158.8535)"><tspan
         id="tspan32"
         style="font-variant:normal;font-weight:normal;font-size:14px;font-family:'DejaVu Sans';writing-mode:lr-tb;fill:#262626;fill-opacity:1;fill-rule:nonzero;stroke:none"
         x="0"
         y="0">60</tspan></text>
    <path
       id="path33"
       d="M 57.96,353.41511 H 635.04"
       style="fill:none;stroke:#cccccc;stroke-width:1;stroke-linecap:round;stroke-linejoin:round;stroke-miterlimit:10;stroke-dasharray:none;stroke-opacity:1"
       transform="matrix(1.3333333,0,0,-1.3333333,0,576)"
       clip-path="url(#clipPath34)" />
    <text
       id="text34"
       xml:space="preserve"
       transform="matrix(1.3333333,0,0,1.3333333,40.863333,111.87361)"><tspan
         id="tspan34"
         style="font-variant:normal;font-weight:normal;font-size:14px;font-family:'DejaVu Sans';writing-mode:lr-tb;fill:#262626;fill-opacity:1;fill-rule:nonzero;stroke:none"
         x="0"
         y="0">70</tspan></text>
    <path
       id="path35"
       d="M 57.96,388.65003 H 635.04"
       style="fill:none;stroke:#cccccc;stroke-width:1;stroke-linecap:round;stroke-linejoin:round;stroke-miterlimit:10;stroke-dasharray:none;stroke-opacity:1"
       transform="matrix(1.3333333,0,0,-1.3333333,0,576)"
       clip-path="url(#clipPath36)" />
    <text
       id="text36"
       xml:space="preserve"
       transform="matrix(1.3333333,0,0,1.3333333,40.863333,64.893713)"><tspan
         id="tspan36"
         style="font-variant:normal;font-weight:normal;font-size:14px;font-family:'DejaVu Sans';writing-mode:lr-tb;fill:#262626;fill-opacity:1;fill-rule:nonzero;stroke:none"
         x="0"
         y="0">80</tspan></text>
    <text
       id="text37"
       xml:space="preserve"
       transform="rotate(-90)"
       x="-426.96072"
       y="24.24107"
       style="font-size:17.6px;stroke-width:1.46666"><tspan
         id="tspan37"
         style="font-variant:normal;font-weight:normal;font-size:20.5334px;font-family:'DejaVu Sans';writing-mode:lr-tb;fill:#262626;fill-opacity:1;fill-rule:nonzero;stroke:none;stroke-width:1.46666"
         x="-426.96072"
         y="24.24107">Amount of consumed metabolite [%]</tspan></text>
    <path
       id="path37"
       d="M 75.99375,106.77067 H 94.0275 V 284.25998 H 75.99375 Z"
       style="fill:#66c2a5;fill-opacity:1;fill-rule:nonzero;stroke:none"
       transform="matrix(1.3333333,0,0,-1.3333333,0,576)"
       clip-path="url(#clipPath38)" />
    <path
       id="path39"
       d="m 148.12875,106.77067 h 18.03375 v 3.51542 h -18.03375 z"
       style="fill:#66c2a5;fill-opacity:1;fill-rule:nonzero;stroke:none"
       transform="matrix(1.3333333,0,0,-1.3333333,0,576)"
       clip-path="url(#clipPath40)" />
    <path
       id="path41"
       d="m 220.26375,106.77067 h 18.03375 v 35.45219 h -18.03375 z"
       style="fill:#66c2a5;fill-opacity:1;fill-rule:nonzero;stroke:none"
       transform="matrix(1.3333333,0,0,-1.3333333,0,576)"
       clip-path="url(#clipPath42)" />
    <path
       id="path43"
       d="m 292.39875,106.77067 h 18.03375 v 37.37395 h -18.03375 z"
       style="fill:#66c2a5;fill-opacity:1;fill-rule:nonzero;stroke:none"
       transform="matrix(1.3333333,0,0,-1.3333333,0,576)"
       clip-path="url(#clipPath44)" />
    <path
       id="path45"
       d="m 364.53375,106.77067 h 18.03375 v 37.29081 h -18.03375 z"
       style="fill:#66c2a5;fill-opacity:1;fill-rule:nonzero;stroke:none"
       transform="matrix(1.3333333,0,0,-1.3333333,0,576)"
       clip-path="url(#clipPath46)" />
    <path
       id="path47"
       d="m 436.66875,106.77067 h 18.03375 v 1.40786 h -18.03375 z"
       style="fill:#66c2a5;fill-opacity:1;fill-rule:nonzero;stroke:none"
       transform="matrix(1.3333333,0,0,-1.3333333,0,576)"
       clip-path="url(#clipPath48)" />
    <path
       id="path49"
       d="m 508.80375,106.77067 h 18.03375 v 1.092 h -18.03375 z"
       style="fill:#66c2a5;fill-opacity:1;fill-rule:nonzero;stroke:none"
       transform="matrix(1.3333333,0,0,-1.3333333,0,576)"
       clip-path="url(#clipPath50)" />
    <path
       id="path51"
       d="m 580.93875,106.77067 h 18.03375 v 5.71792 h -18.03375 z"
       style="fill:#66c2a5;fill-opacity:1;fill-rule:nonzero;stroke:none"
       transform="matrix(1.3333333,0,0,-1.3333333,0,576)"
       clip-path="url(#clipPath52)" />
    <path
       id="path53"
       d="m 94.0275,106.77067 h 18.03375 V 386.11289 H 94.0275 Z"
       style="fill:#fc8d62;fill-opacity:1;fill-rule:nonzero;stroke:none"
       transform="matrix(1.3333333,0,0,-1.3333333,0,576)"
       clip-path="url(#clipPath54)" />
    <path
       id="path55"
       d="m 166.1625,106.77067 h 18.03375 V 146.8769 H 166.1625 Z"
       style="fill:#fc8d62;fill-opacity:1;fill-rule:nonzero;stroke:none"
       transform="matrix(1.3333333,0,0,-1.3333333,0,576)"
       clip-path="url(#clipPath56)" />
    <path
       id="path57"
       d="m 238.2975,106.77067 h 18.03375 V 157.0241 H 238.2975 Z"
       style="fill:#fc8d62;fill-opacity:1;fill-rule:nonzero;stroke:none"
       transform="matrix(1.3333333,0,0,-1.3333333,0,576)"
       clip-path="url(#clipPath58)" />
    <path
       id="path59"
       d="m 310.4325,106.77067 h 18.03375 v 43.13044 H 310.4325 Z"
       style="fill:#fc8d62;fill-opacity:1;fill-rule:nonzero;stroke:none"
       transform="matrix(1.3333333,0,0,-1.3333333,0,576)"
       clip-path="url(#clipPath60)" />
    <path
       id="path61"
       d="m 382.5675,106.77067 h 18.03375 v 43.04076 H 382.5675 Z"
       style="fill:#fc8d62;fill-opacity:1;fill-rule:nonzero;stroke:none"
       transform="matrix(1.3333333,0,0,-1.3333333,0,576)"
       clip-path="url(#clipPath62)" />
    <path
       id="path63"
       d="m 454.7025,106.77067 h 18.03375 v 6.48208 H 454.7025 Z"
       style="fill:#fc8d62;fill-opacity:1;fill-rule:nonzero;stroke:none"
       transform="matrix(1.3333333,0,0,-1.3333333,0,576)"
       clip-path="url(#clipPath64)" />
    <path
       id="path65"
       d="m 526.8375,106.77067 h 18.03375 v 1.17262 H 526.8375 Z"
       style="fill:#fc8d62;fill-opacity:1;fill-rule:nonzero;stroke:none"
       transform="matrix(1.3333333,0,0,-1.3333333,0,576)"
       clip-path="url(#clipPath66)" />
    <path
       id="path67"
       d="m 598.9725,106.77067 h 18.03375 v 5.78189 H 598.9725 Z"
       style="fill:#fc8d62;fill-opacity:1;fill-rule:nonzero;stroke:none"
       transform="matrix(1.3333333,0,0,-1.3333333,0,576)"
       clip-path="url(#clipPath68)" />
    <path
       id="path69"
       d="M 57.96,106.77067 V 400.08"
       style="fill:none;stroke:#cccccc;stroke-width:1.25;stroke-linecap:square;stroke-linejoin:miter;stroke-miterlimit:10;stroke-dasharray:none;stroke-opacity:1"
       transform="matrix(1.3333333,0,0,-1.3333333,0,576)" />
    <path
       id="path70"
       d="M 57.96,106.77067 H 635.04"
       style="fill:none;stroke:#cccccc;stroke-width:1.25;stroke-linecap:square;stroke-linejoin:miter;stroke-miterlimit:10;stroke-dasharray:none;stroke-opacity:1"
       transform="matrix(1.3333333,0,0,-1.3333333,0,576)" />
    <path
       id="path71"
       d="m 508.94,347.78625 h 116.3 c 1.86667,0 2.8,0.93333 2.8,2.8 V 390.28 c 0,1.86667 -0.93333,2.8 -2.8,2.8 h -116.3 c -1.86667,0 -2.8,-0.93333 -2.8,-2.8 v -39.69375 c 0,-1.86667 0.93333,-2.8 2.8,-2.8 z"
       style="fill:#ffffff;fill-opacity:0.8;fill-rule:nonzero;stroke:#cccccc;stroke-width:1;stroke-linecap:butt;stroke-linejoin:miter;stroke-miterlimit:10;stroke-dasharray:none;stroke-opacity:0.8"
       transform="matrix(1.3333333,0,0,-1.3333333,0,576)" />
    <path
       id="path72"
       d="m 511.74,376.83937 h 28 v 9.8 h -28 z"
       style="fill:#66c2a5;fill-opacity:1;fill-rule:nonzero;stroke:none"
       transform="matrix(1.3333333,0,0,-1.3333333,0,576)" />
    <text
       id="text72"
       xml:space="preserve"
       transform="matrix(1.3333333,0,0,1.3333333,734.58667,73.5475)"><tspan
         id="tspan72"
         style="font-variant:normal;font-weight:normal;font-size:14px;font-family:'DejaVu Sans';writing-mode:lr-tb;fill:#262626;fill-opacity:1;fill-rule:nonzero;stroke:none"
         x="0"
         y="0">Naveed</tspan></text>
    <path
       id="path73"
       d="m 511.74,356.2925 h 28 v 9.8 h -28 z"
       style="fill:#fc8d62;fill-opacity:1;fill-rule:nonzero;stroke:none"
       transform="matrix(1.3333333,0,0,-1.3333333,0,576)" />
    <text
       id="text73"
       xml:space="preserve"
       transform="matrix(1.3333333,0,0,1.3333333,734.58667,100.94333)"><tspan
         id="tspan73"
         style="font-variant:normal;font-weight:normal;font-size:14px;font-family:'DejaVu Sans';writing-mode:lr-tb;fill:#262626;fill-opacity:1;fill-rule:nonzero;stroke:none"
         x="0"
         y="0">Krumbach</tspan></text>
  </g>
</svg>
