<?xml version="1.0" encoding="UTF-8" standalone="no"?>
<svg
   width="545.21472pt"
   height="324.53104pt"
   viewBox="0 0 545.21472 324.53103"
   version="1.1"
   id="svg235"
   sodipodi:docname="VitaminB_all8_Ind.svg"
   inkscape:version="1.4.2 (2aeb623e1d, 2025-05-12)"
   inkscape:export-filename="../333145b5/VitaminB_Responses.pdf"
   inkscape:export-xdpi="300"
   inkscape:export-ydpi="300"
   xmlns:inkscape="http://www.inkscape.org/namespaces/inkscape"
   xmlns:sodipodi="http://sodipodi.sourceforge.net/DTD/sodipodi-0.dtd"
   xmlns:xlink="http://www.w3.org/1999/xlink"
   xmlns="http://www.w3.org/2000/svg"
   xmlns:svg="http://www.w3.org/2000/svg"
   xmlns:rdf="http://www.w3.org/1999/02/22-rdf-syntax-ns#"
   xmlns:cc="http://creativecommons.org/ns#"
   xmlns:dc="http://purl.org/dc/elements/1.1/">
  <sodipodi:namedview
     id="namedview235"
     pagecolor="#ffffff"
     bordercolor="#000000"
     borderopacity="0.25"
     inkscape:showpageshadow="2"
     inkscape:pageopacity="0.0"
     inkscape:pagecheckerboard="0"
     inkscape:deskcolor="#d1d1d1"
     inkscape:document-units="pt"
     inkscape:zoom="0.76379428"
     inkscape:cx="523.70122"
     inkscape:cy="337.13266"
     inkscape:window-width="1920"
     inkscape:window-height="958"
     inkscape:window-x="0"
     inkscape:window-y="0"
     inkscape:window-maximized="1"
     inkscape:current-layer="svg235" />
  <metadata
     id="metadata1">
    <rdf:RDF>
      <cc:Work>
        <dc:type
           rdf:resource="http://purl.org/dc/dcmitype/StillImage" />
        <dc:date>2025-10-29T09:42:58.970965</dc:date>
        <dc:format>image/svg+xml</dc:format>
        <dc:creator>
          <cc:Agent>
            <dc:title>Matplotlib v3.10.0, https://matplotlib.org/</dc:title>
          </cc:Agent>
        </dc:creator>
      </cc:Work>
    </rdf:RDF>
  </metadata>
  <defs
     id="defs1">
    <style
       type="text/css"
       id="style1">*{stroke-linejoin: round; stroke-linecap: butt}</style>
    <path
       id="DejaVuSans-53"
       d="m 3425,4513 v -616 q -359,172 -678,256 -319,85 -616,85 -515,0 -795,-200 -280,-200 -280,-569 0,-310 186,-468 186,-157 705,-254 l 381,-78 q 706,-135 1042,-474 336,-339 336,-907 0,-679 -455,-1029 -454,-350 -1332,-350 -331,0 -705,75 -373,75 -773,222 v 650 q 384,-215 753,-325 369,-109 725,-109 540,0 834,212 294,213 294,607 0,343 -211,537 -211,194 -692,291 l -385,75 q -706,140 -1022,440 -315,300 -315,835 0,619 436,975 436,356 1201,356 329,0 669,-60 341,-59 697,-177 z"
       transform="scale(0.015625)" />
    <path
       id="DejaVuSans-6d"
       d="m 3328,2828 q 216,388 516,572 300,184 706,184 547,0 844,-383 297,-382 297,-1088 V 0 h -578 v 2094 q 0,503 -179,746 -178,244 -543,244 -447,0 -707,-297 -259,-296 -259,-809 V 0 h -578 v 2094 q 0,506 -178,748 -178,242 -550,242 -441,0 -701,-298 -259,-298 -259,-808 V 0 H 581 v 3500 h 578 v -544 q 197,322 472,475 275,153 653,153 382,0 649,-194 267,-193 395,-562 z"
       transform="scale(0.015625)" />
    <path
       id="DejaVuSans-61"
       d="m 2194,1759 q -697,0 -966,-159 -269,-159 -269,-544 0,-306 202,-486 202,-179 548,-179 479,0 768,339 289,339 289,901 v 128 z m 1147,238 V 0 H 2766 V 531 Q 2569,213 2275,61 1981,-91 1556,-91 q -537,0 -855,302 -317,302 -317,808 0,590 395,890 396,300 1180,300 h 807 v 57 q 0,397 -261,614 -261,217 -733,217 -300,0 -585,-72 -284,-72 -546,-216 v 532 q 315,122 612,182 297,61 578,61 760,0 1135,-394 375,-393 375,-1193 z"
       transform="scale(0.015625)" />
    <path
       id="DejaVuSans-42"
       d="M 1259,2228 V 519 h 1013 q 509,0 754,211 246,211 246,645 0,438 -246,645 -245,208 -754,208 z m 0,1919 V 2741 h 935 q 462,0 688,173 227,174 227,530 0,353 -227,528 -226,175 -688,175 z m -631,519 h 1613 q 722,0 1112,-300 391,-300 391,-853 0,-429 -200,-682 -200,-253 -588,-315 466,-100 724,-418 258,-317 258,-792 0,-625 -425,-966 Q 3088,0 2303,0 H 628 Z"
       transform="scale(0.015625)" />
    <path
       id="DejaVuSans-70"
       d="M 1159,525 V -1331 H 581 v 4831 h 578 v -531 q 182,312 458,463 277,152 661,152 638,0 1036,-506 399,-506 399,-1331 0,-825 -399,-1332 -398,-506 -1036,-506 -384,0 -661,152 -276,152 -458,464 z m 1957,1222 q 0,634 -261,995 -261,361 -717,361 -457,0 -718,-361 -261,-361 -261,-995 0,-634 261,-995 261,-361 718,-361 456,0 717,361 261,361 261,995 z"
       transform="scale(0.015625)" />
    <path
       id="DejaVuSans-69"
       d="m 603,3500 h 575 V 0 H 603 Z m 0,1363 h 575 V 4134 H 603 Z"
       transform="scale(0.015625)" />
    <path
       id="DejaVuSans-43"
       d="m 4122,4306 v -665 q -319,297 -680,443 -361,147 -767,147 -800,0 -1225,-489 -425,-489 -425,-1414 0,-922 425,-1411 425,-489 1225,-489 406,0 767,147 361,147 680,444 V 359 Q 3791,134 3420,21 3050,-91 2638,-91 1578,-91 968,557 359,1206 359,2328 q 0,1125 609,1773 610,649 1670,649 418,0 788,-111 371,-111 696,-333 z"
       transform="scale(0.015625)" />
    <path
       id="DejaVuSans-75"
       d="m 544,1381 v 2119 h 575 V 1403 q 0,-497 193,-746 194,-248 582,-248 465,0 735,297 271,297 271,810 v 1984 h 575 V 0 H 2900 V 538 Q 2691,219 2414,64 2138,-91 1772,-91 1169,-91 856,284 544,659 544,1381 Z m 1447,2203 z"
       transform="scale(0.015625)" />
    <path
       id="DejaVuSans-45"
       d="M 628,4666 H 3578 V 4134 H 1259 V 2753 H 3481 V 2222 H 1259 V 531 H 3634 V 0 H 628 Z"
       transform="scale(0.015625)" />
    <path
       id="DejaVuSans-6c"
       d="m 603,4863 h 575 V 0 H 603 Z"
       transform="scale(0.015625)" />
    <path
       id="DejaVuSans-6e"
       d="M 3513,2113 V 0 h -575 v 2094 q 0,497 -194,743 -194,247 -581,247 -466,0 -735,-297 -269,-296 -269,-809 V 0 H 581 v 3500 h 578 v -544 q 207,316 486,472 280,156 646,156 603,0 912,-373 310,-373 310,-1098 z"
       transform="scale(0.015625)" />
    <path
       id="DejaVuSans-48"
       d="m 628,4666 h 631 V 2753 h 2294 v 1913 h 631 V 0 H 3553 V 2222 H 1259 V 0 H 628 Z"
       transform="scale(0.015625)" />
    <path
       id="DejaVuSans-72"
       d="m 2631,2963 q -97,56 -211,82 -114,27 -251,27 -488,0 -749,-317 -261,-317 -261,-911 V 0 H 581 v 3500 h 578 v -544 q 182,319 472,473 291,155 707,155 59,0 131,-8 72,-7 159,-23 z"
       transform="scale(0.015625)" />
    <path
       id="DejaVuSans-6f"
       d="m 1959,3097 q -462,0 -731,-361 -269,-361 -269,-989 0,-628 267,-989 268,-361 733,-361 460,0 728,362 269,363 269,988 0,622 -269,986 -268,364 -728,364 z m 0,487 q 750,0 1178,-488 429,-487 429,-1349 Q 3566,888 3137,398 2709,-91 1959,-91 1206,-91 779,398 353,888 353,1747 q 0,862 426,1349 427,488 1180,488 z"
       transform="scale(0.015625)" />
    <path
       id="DejaVuSans-50"
       d="M 1259,4147 V 2394 h 794 q 441,0 681,228 241,228 241,650 0,419 -241,647 -240,228 -681,228 z m -631,519 h 1425 q 785,0 1186,-355 402,-355 402,-1039 0,-691 -402,-1044 -401,-353 -1186,-353 H 1259 V 0 H 628 Z"
       transform="scale(0.015625)" />
    <path
       id="DejaVuSans-74"
       d="M 1172,4494 V 3500 H 2356 V 3053 H 1172 V 1153 q 0,-428 117,-550 117,-122 477,-122 h 590 V 0 H 1766 Q 1100,0 847,248 594,497 594,1153 V 3053 H 172 v 447 h 422 v 994 z"
       transform="scale(0.015625)" />
    <path
       id="DejaVuSans-73"
       d="m 2834,3397 v -544 q -243,125 -506,187 -262,63 -544,63 -428,0 -642,-131 -214,-131 -214,-394 0,-200 153,-314 153,-114 616,-217 l 197,-44 q 612,-131 870,-370 258,-239 258,-667 0,-488 -386,-773 Q 2250,-91 1575,-91 1294,-91 989,-36 684,19 347,128 v 594 q 319,-166 628,-249 309,-82 613,-82 406,0 624,139 219,139 219,392 0,234 -158,359 -157,125 -692,241 l -200,47 q -534,112 -772,345 -237,233 -237,639 0,494 350,762 350,269 994,269 318,0 599,-47 282,-46 519,-140 z"
       transform="scale(0.015625)" />
  </defs>
  <g
     id="patch_1"
     transform="scale(0.75724266,0.9014751)"
     inkscape:export-filename="../333145b5/VitaminB_Responses.pdf"
     inkscape:export-xdpi="300"
     inkscape:export-ydpi="300">
    <path
       d="M 0,360 H 720 V 0 H 0 Z"
       style="fill:#ffffff"
       id="path1" />
  </g>
  <g
     id="patch_2"
     transform="translate(-4.1187071,-10.979216)">
    <path
       d="M 63.828,297.79327 H 537.02 V 27.6 H 63.828 Z"
       style="fill:#ffffff"
       id="path2" />
  </g>
  <g
     id="line2d_8"
     transform="translate(-4.1187071,-10.979216)">
    <path
       d="M 63.828,297.79327 H 537.02"
       clip-path="url(#peab4244a7a)"
       style="fill:none;stroke:#cccccc;stroke-linecap:round"
       id="path30" />
  </g>
  <g
     id="line2d_9"
     style="stroke:#eaeaf2;stroke-opacity:1"
     transform="translate(-4.1187071,-10.979216)">
    <path
       d="M 63.828,262.39339 H 537.02"
       clip-path="url(#peab4244a7a)"
       style="fill:none;stroke:#eaeaf2;stroke-linecap:round;stroke-opacity:1"
       id="path31" />
  </g>
  <path
     style="fill:none;stroke:#000000;stroke-width:1.5;stroke-linecap:square;stroke-linejoin:round;stroke-dasharray:none;stroke-opacity:1"
     d="m 220.11548,272.12416 v -34.00153 h 26.9643 l -1e-5,11.84254"
     id="path253-2"
     sodipodi:nodetypes="cccc" />
  <g
     id="line2d_10"
     style="stroke:#eaeaf2;stroke-opacity:1"
     transform="translate(-4.1187071,-10.979216)">
    <path
       d="M 63.828,226.99351 H 537.02"
       clip-path="url(#peab4244a7a)"
       style="fill:none;stroke:#eaeaf2;stroke-linecap:round;stroke-opacity:1"
       id="path32" />
  </g>
  <g
     id="line2d_11"
     style="stroke:#eaeaf2;stroke-opacity:1"
     transform="translate(-4.1187071,-10.979216)">
    <path
       d="M 63.828,191.59363 H 537.02"
       clip-path="url(#peab4244a7a)"
       style="fill:none;stroke:#eaeaf2;stroke-linecap:round;stroke-opacity:1"
       id="path33" />
  </g>
  <g
     id="line2d_12"
     style="stroke:#eaeaf2;stroke-opacity:1"
     transform="translate(-4.1187071,-10.979216)">
    <path
       d="M 63.828,156.19375 H 537.02"
       clip-path="url(#peab4244a7a)"
       style="fill:none;stroke:#eaeaf2;stroke-linecap:round;stroke-opacity:1"
       id="path34" />
  </g>
  <g
     id="line2d_13"
     style="stroke:#eaeaf2;stroke-opacity:1"
     transform="translate(-4.1187071,-10.979216)">
    <path
       d="M 63.828,120.79387 H 537.02"
       clip-path="url(#peab4244a7a)"
       style="fill:none;stroke:#eaeaf2;stroke-linecap:round;stroke-opacity:1"
       id="path35" />
  </g>
  <g
     id="line2d_14"
     style="stroke:#eaeaf2;stroke-opacity:1"
     transform="translate(-4.1187071,-10.979216)">
    <path
       d="M 63.828,85.393989 H 537.02"
       clip-path="url(#peab4244a7a)"
       style="fill:none;stroke:#eaeaf2;stroke-linecap:round;stroke-opacity:1"
       id="path37" />
  </g>
  <g
     id="line2d_15"
     style="fill:none;fill-opacity:1;stroke:#eaeaf2;stroke-opacity:1"
     transform="translate(-4.1187071,-10.979216)">
    <path
       d="M 63.828,49.994108 H 537.02"
       clip-path="url(#peab4244a7a)"
       style="fill:none;fill-opacity:1;stroke:#eaeaf2;stroke-linecap:round;stroke-opacity:1"
       id="path39" />
  </g>
  <path
     style="fill:none;stroke:#000000;stroke-width:1.5;stroke-linecap:square;stroke-linejoin:round;stroke-dasharray:none;stroke-opacity:1"
     d="M 157.40782,285.64612 V 17.64459 h 26.9643 l -1e-5,11.84254"
     id="path253-2-2"
     sodipodi:nodetypes="cccc" />
  <g
     id="g236"
     transform="matrix(1.331,0,0,1.331,-26.222027,-109.24603)">
    <g
       style="fill:#262626"
       transform="matrix(0,-0.12,-0.12,0,33.834875,287.21629)"
       id="g52">
      <defs
         id="defs41">
        <path
           id="DejaVuSans-67"
           d="m 2906,1791 q 0,625 -258,968 -257,344 -723,344 -462,0 -720,-344 -258,-343 -258,-968 0,-622 258,-966 258,-344 720,-344 466,0 723,344 258,344 258,966 z M 3481,434 q 0,-893 -397,-1329 -396,-436 -1215,-436 -303,0 -572,45 -269,45 -522,139 v 559 q 253,-137 500,-202 247,-66 503,-66 566,0 847,295 281,295 281,892 V 616 Q 2728,306 2450,153 2172,0 1784,0 1141,0 747,490 353,981 353,1791 q 0,812 394,1302 394,491 1037,491 388,0 666,-153 278,-153 456,-462 v 531 h 575 z"
           transform="scale(0.015625)" />
        <path
           id="DejaVuSans-77"
           d="m 269,3500 h 575 l 719,-2731 715,2731 h 678 l 719,-2731 716,2731 h 575 L 4050,0 H 3372 L 2619,2869 1863,0 h -679 z"
           transform="scale(0.015625)" />
        <path
           id="DejaVuSans-68"
           d="M 3513,2113 V 0 h -575 v 2094 q 0,497 -194,743 -194,247 -581,247 -466,0 -735,-297 -269,-296 -269,-809 V 0 H 581 v 4863 h 578 V 2956 q 207,316 486,472 280,156 646,156 603,0 912,-373 310,-373 310,-1098 z"
           transform="scale(0.015625)" />
        <path
           id="DejaVuSans-20"
           transform="scale(0.015625)"
           d="" />
        <path
           id="DejaVuSans-65"
           d="M 3597,1894 V 1613 H 953 q 38,-594 358,-905 320,-311 892,-311 331,0 642,81 311,81 618,244 V 178 Q 3153,47 2828,-22 2503,-91 2169,-91 1331,-91 842,396 353,884 353,1716 q 0,859 464,1363 464,505 1252,505 706,0 1117,-455 411,-454 411,-1235 z m -575,169 q -6,471 -264,752 -258,282 -683,282 -481,0 -770,-272 -289,-272 -333,-766 z"
           transform="scale(0.015625)" />
      </defs>
      <use
         xlink:href="#DejaVuSans-67"
         id="use42" />
      <path
         id="use43"
         d="m 104.58594,46.296875 q -1.51563,0.875 -3.29688,1.28125 Q 99.507812,48 97.367187,48 89.742187,48 85.664062,43.046875 81.585937,38.09375 81.585937,28.8125 V 0 h -9.03125 v 54.6875 h 9.03125 v -8.5 q 2.84375,4.984375 7.375,7.390625 Q 93.507812,56 100.00781,56 q 0.92188,0 2.04688,-0.125 1.125,-0.109375 2.48437,-0.359375 z"
         style="stroke-width:0.015625" />
      <path
         id="use44"
         d="m 132.94921,48.390625 q -7.21875,0 -11.42187,-5.640625 -4.20313,-5.640625 -4.20313,-15.453125 0,-9.8125 4.17188,-15.453125 4.1875,-5.640625 11.45312,-5.640625 7.1875,0 11.375,5.65625 4.20313,5.671875 4.20313,15.4375 0,9.71875 -4.20313,15.40625 -4.1875,5.6875 -11.375,5.6875 z m 0,7.609375 q 11.71875,0 18.40625,-7.625 6.70313,-7.609375 6.70313,-21.078125 0,-13.421875 -6.70313,-21.078125 -6.6875,-7.640625 -18.40625,-7.640625 -11.76562,0 -18.4375,7.640625 -6.65625,7.65625 -6.65625,21.078125 0,13.46875 6.65625,21.078125 6.67188,7.625 18.4375,7.625 z"
         style="stroke-width:0.015625" />
      <use
         xlink:href="#DejaVuSans-77"
         transform="translate(163.52148)"
         id="use45" />
      <path
         id="use46"
         d="M 263.62109,70.21875 V 54.6875 h 18.5 v -6.984375 h -18.5 v -29.6875 q 0,-6.6875 1.82812,-8.59375 1.82813,-1.90625 7.45313,-1.90625 h 9.21875 V 0 h -9.21875 q -10.40625,0 -14.35938,3.875 -3.95312,3.890625 -3.95312,14.140625 v 29.6875 h -6.59375 V 54.6875 h 6.59375 v 15.53125 z"
         style="stroke-width:0.015625" />
      <use
         xlink:href="#DejaVuSans-68"
         transform="translate(284.51758)"
         id="use47" />
      <use
         xlink:href="#DejaVuSans-20"
         transform="translate(347.89648)"
         id="use48" />
      <path
         id="use49"
         d="m 420.79296,46.296875 q -1.51562,0.875 -3.29687,1.28125 Q 415.71484,48 413.57421,48 405.94921,48 401.87109,43.046875 397.79296,38.09375 397.79296,28.8125 V 0 h -9.03125 v 54.6875 h 9.03125 v -8.5 q 2.84375,4.984375 7.375,7.390625 Q 409.71484,56 416.21484,56 q 0.92187,0 2.04687,-0.125 1.125,-0.109375 2.48438,-0.359375 z"
         style="stroke-width:0.015625" />
      <path
         id="use50"
         d="m 455.07812,27.484375 q -10.89062,0 -15.09375,-2.484375 -4.20312,-2.484375 -4.20312,-8.5 0,-4.78125 3.15625,-7.59375 3.15625,-2.796875 8.5625,-2.796875 7.48437,0 12,5.296875 4.51562,5.296875 4.51562,14.078125 v 2 z M 473,31.203125 V 0 h -8.98438 v 8.296875 q -3.07812,-4.96875 -7.67187,-7.34375 -4.59375,-2.375 -11.23438,-2.375 -8.39062,0 -13.35937,4.71875 -4.95313,4.71875 -4.95313,12.625 0,9.21875 6.17188,13.90625 6.1875,4.6875 18.4375,4.6875 h 12.60937 v 0.890625 q 0,6.203125 -4.07812,9.59375 -4.07813,3.390625 -11.45313,3.390625 -4.6875,0 -9.14062,-1.125 -4.4375,-1.125 -8.53125,-3.375 v 8.3125 q 4.92187,1.90625 9.5625,2.84375 Q 445.01562,56 449.40625,56 q 11.875,0 17.73437,-6.15625 Q 473,43.703125 473,31.203125 Z"
         style="stroke-width:0.015625" />
      <path
         id="use51"
         d="M 500.38867,70.21875 V 54.6875 h 18.5 v -6.984375 h -18.5 v -29.6875 q 0,-6.6875 1.82812,-8.59375 1.82813,-1.90625 7.45313,-1.90625 h 9.21875 V 0 h -9.21875 q -10.40625,0 -14.35938,3.875 -3.95312,3.890625 -3.95312,14.140625 v 29.6875 h -6.59375 V 54.6875 h 6.59375 v 15.53125 z"
         style="stroke-width:0.015625" />
      <use
         xlink:href="#DejaVuSans-65"
         transform="translate(521.28516)"
         id="use52" />
    </g>
    <g
       style="fill:#262626"
       transform="matrix(0,-0.12,-0.12,0,33.834875,211.17945)"
       id="g66">
      <defs
         id="defs52">
        <path
           id="DejaVuSans-5b"
           d="M 550,4863 H 1875 V 4416 H 1125 V -397 h 750 V -844 H 550 Z"
           transform="scale(0.015625)" />
        <path
           id="DejaVuSans-2f"
           d="m 1625,4666 h 531 L 531,-594 H 0 Z"
           transform="scale(0.015625)" />
        <path
           id="DejaVuSans-28"
           d="m 1984,4856 q -418,-718 -622,-1422 -203,-703 -203,-1425 0,-721 205,-1429 205,-708 620,-1424 h -500 q -468,735 -701,1444 -233,709 -233,1409 0,697 231,1403 232,707 703,1444 z"
           transform="scale(0.015625)" />
        <path
           id="DejaVuSans-44"
           d="M 1259,4147 V 519 h 763 q 966,0 1414,437 448,438 448,1382 0,937 -448,1373 -448,436 -1414,436 z m -631,519 h 1297 q 1356,0 1990,-564 635,-564 635,-1764 Q 4550,1131 3912,565 3275,0 1925,0 H 628 Z"
           transform="scale(0.015625)" />
        <path
           id="DejaVuSans-57"
           d="m 213,4666 h 637 l 981,-3944 978,3944 h 710 l 981,-3944 978,3944 h 641 L 4947,0 H 4153 L 3169,4050 2175,0 h -794 z"
           transform="scale(0.015625)" />
        <path
           id="DejaVuSans-29"
           d="m 513,4856 h 500 q 468,-737 701,-1444 233,-706 233,-1403 0,-700 -233,-1409 -233,-709 -701,-1444 H 513 q 415,716 620,1424 205,708 205,1429 0,722 -205,1425 -205,704 -620,1422 z"
           transform="scale(0.015625)" />
        <path
           id="DejaVuSans-5d"
           d="M 1947,4863 V -844 H 622 v 447 h 747 V 4416 H 622 v 447 z"
           transform="scale(0.015625)" />
      </defs>
      <use
         xlink:href="#DejaVuSans-5b"
         id="use53" />
      <path
         id="use54"
         d="m 91.013672,44.1875 q 3.375,6.0625 8.0625,8.9375 Q 103.76367,56 110.10742,56 q 8.54688,0 13.1875,-5.984375 4.64063,-5.96875 4.64063,-17 V 0 h -9.03125 v 32.71875 q 0,7.859375 -2.79688,11.65625 -2.78125,3.8125 -8.48437,3.8125 -6.98438,0 -11.046878,-4.640625 -4.046875,-4.625 -4.046875,-12.640625 V 0 h -9.03125 v 32.71875 q 0,7.90625 -2.78125,11.6875 -2.78125,3.78125 -8.59375,3.78125 -6.890625,0 -10.953125,-4.65625 -4.046875,-4.65625 -4.046875,-12.625 V 0 h -9.03125 v 54.6875 h 9.03125 v -8.5 q 3.078125,5.03125 7.375,7.421875 Q 68.794922,56 74.701172,56 q 5.96875,0 10.140625,-3.03125 4.171875,-3.015625 6.171875,-8.78125 z"
         style="stroke-width:0.015625" />
      <path
         id="use55"
         d="m 188.42578,44.1875 q 3.375,6.0625 8.0625,8.9375 4.6875,2.875 11.03125,2.875 8.54687,0 13.1875,-5.984375 4.64062,-5.96875 4.64062,-17 V 0 h -9.03125 v 32.71875 q 0,7.859375 -2.79687,11.65625 -2.78125,3.8125 -8.48438,3.8125 -6.98437,0 -11.04687,-4.640625 -4.04688,-4.625 -4.04688,-12.640625 V 0 h -9.03125 v 32.71875 q 0,7.90625 -2.78125,11.6875 -2.78125,3.78125 -8.59375,3.78125 -6.89062,0 -10.95312,-4.65625 -4.04688,-4.65625 -4.04688,-12.625 V 0 h -9.03125 v 54.6875 h 9.03125 v -8.5 q 3.07813,5.03125 7.375,7.421875 Q 166.20703,56 172.11328,56 q 5.96875,0 10.14062,-3.03125 4.17188,-3.015625 6.17188,-8.78125 z"
         style="stroke-width:0.015625" />
      <path
         id="use56"
         d="m 264.44727,48.390625 q -7.21875,0 -11.42188,-5.640625 -4.20313,-5.640625 -4.20313,-15.453125 0,-9.8125 4.17188,-15.453125 4.1875,-5.640625 11.45313,-5.640625 7.1875,0 11.375,5.65625 4.20312,5.671875 4.20312,15.4375 0,9.71875 -4.20312,15.40625 -4.1875,5.6875 -11.375,5.6875 z m 0,7.609375 q 11.71875,0 18.40625,-7.625 6.70312,-7.609375 6.70312,-21.078125 0,-13.421875 -6.70312,-21.078125 -6.6875,-7.640625 -18.40625,-7.640625 -11.76563,0 -18.43751,7.640625 -6.65625,7.65625 -6.65625,21.078125 0,13.46875 6.65625,21.078125 Q 252.68164,56 264.44727,56 Z"
         style="stroke-width:0.015625" />
      <path
         id="use57"
         d="m 304.4414,75.984375 h 8.98438 V 0 h -8.98438 z"
         style="stroke-width:0.015625" />
      <use
         xlink:href="#DejaVuSans-2f"
         transform="translate(322.80273)"
         id="use58" />
      <use
         xlink:href="#DejaVuSans-28"
         transform="translate(356.49414)"
         id="use59" />
      <use
         xlink:href="#DejaVuSans-67"
         transform="translate(395.50781)"
         id="use60" />
      <use
         xlink:href="#DejaVuSans-44"
         transform="translate(458.98437)"
         id="use61" />
      <use
         xlink:href="#DejaVuSans-57"
         transform="translate(535.98633)"
         id="use62" />
      <use
         xlink:href="#DejaVuSans-20"
         transform="translate(634.86328)"
         id="use63" />
      <use
         xlink:href="#DejaVuSans-68"
         transform="translate(666.65039)"
         id="use64" />
      <use
         xlink:href="#DejaVuSans-29"
         transform="translate(730.0293)"
         id="use65" />
      <use
         xlink:href="#DejaVuSans-5d"
         transform="translate(769.04297)"
         id="use66" />
    </g>
  </g>
  <g
     id="patch_3"
     style="fill:#fff8ae;fill-opacity:1;stroke:none"
     transform="translate(-4.1187071,-10.979216)">
    <path
       d="m 85.336727,297.79327 h 26.964293 v -77.7066 H 85.336727 Z"
       clip-path="url(#peab4244a7a)"
       style="fill:#fff8ae;fill-opacity:1;stroke:none;stroke-linejoin:miter"
       id="path66" />
  </g>
  <g
     id="patch_4"
     transform="translate(-4.1187071,-10.979216)">
    <path
       d="m 148.04439,297.79327 h 26.96429 v 0 z"
       clip-path="url(#peab4244a7a)"
       style="fill:#fffacd;stroke:#ffffff;stroke-linejoin:miter"
       id="path67" />
  </g>
  <g
     id="patch_5"
     style="fill:#fff8ae;fill-opacity:1;stroke:none"
     transform="translate(-4.1187071,-10.979216)">
    <path
       d="m 210.75205,297.79327 h 26.96429 V 269.9135 h -26.96429 z"
       clip-path="url(#peab4244a7a)"
       style="fill:#fff8ae;fill-opacity:1;stroke:none;stroke-linejoin:miter"
       id="path68" />
  </g>
  <g
     id="patch_6"
     style="fill:#fff8ae;fill-opacity:1;stroke:none"
     transform="translate(-4.1187071,-10.979216)">
    <path
       d="M 273.45971,297.79327 H 300.424 V 47.763737 h -26.96429 z"
       clip-path="url(#peab4244a7a)"
       style="fill:#fff8ae;fill-opacity:1;stroke:none;stroke-linejoin:miter"
       id="path69" />
  </g>
  <g
     id="patch_7"
     style="fill:#fff8ae;fill-opacity:1;stroke:none"
     transform="translate(-4.1187071,-10.979216)">
    <path
       d="m 336.16737,297.79327 h 26.96429 V 172.24065 h -26.96429 z"
       clip-path="url(#peab4244a7a)"
       style="fill:#fff8ae;fill-opacity:1;stroke:none;stroke-linejoin:miter"
       id="path70" />
  </g>
  <g
     id="patch_8"
     style="fill:#fff8ae;fill-opacity:1;stroke:none"
     transform="translate(-4.1187071,-10.979216)">
    <path
       d="m 398.87503,297.79327 h 26.96429 V 106.19168 h -26.96429 z"
       clip-path="url(#peab4244a7a)"
       style="fill:#fff8ae;fill-opacity:1;stroke:none;stroke-linejoin:miter"
       id="path71" />
  </g>
  <g
     id="patch_9"
     style="fill:#fff8ae;fill-opacity:1;stroke:none"
     transform="translate(-4.1187071,-10.979216)">
    <path
       d="m 461.58269,297.79327 h 26.96429 V 115.29799 h -26.96429 z"
       clip-path="url(#peab4244a7a)"
       style="fill:#fff8ae;fill-opacity:1;stroke:none;stroke-linejoin:miter"
       id="path72" />
  </g>
  <g
     id="patch_10"
     style="stroke:none"
     transform="translate(-4.1187071,-10.979216)">
    <path
       d="m 112.30102,297.79327 h 26.96429 v -77.7066 h -26.96429 z"
       clip-path="url(#peab4244a7a)"
       style="fill:#6495ed;stroke:none;stroke-linejoin:miter"
       id="path73" />
  </g>
  <g
     id="patch_11"
     style="stroke:none"
     transform="translate(-4.1187071,-10.979216)">
    <path
       d="m 175.00868,297.79327 h 26.96429 V 40.466346 h -26.96429 z"
       clip-path="url(#peab4244a7a)"
       style="fill:#6495ed;stroke:none;stroke-linejoin:miter"
       id="path74" />
  </g>
  <g
     id="patch_12"
     style="stroke:none"
     transform="translate(-4.1187071,-10.979216)">
    <path
       d="m 237.71634,297.79327 h 26.96429 v -36.84888 h -26.96429 z"
       clip-path="url(#peab4244a7a)"
       style="fill:#6495ed;stroke:none;stroke-linejoin:miter"
       id="path75" />
  </g>
  <g
     id="patch_13"
     style="stroke:none"
     transform="translate(-4.1187071,-10.979216)">
    <path
       d="m 300.424,297.79327 h 26.96429 V 47.607599 H 300.424 Z"
       clip-path="url(#peab4244a7a)"
       style="fill:#6495ed;stroke:none;stroke-linejoin:miter"
       id="path76" />
  </g>
  <g
     id="patch_14"
     style="stroke:none"
     transform="translate(-4.1187071,-10.979216)">
    <path
       d="m 363.13166,297.79327 h 26.96429 V 146.05332 h -26.96429 z"
       clip-path="url(#peab4244a7a)"
       style="fill:#6495ed;stroke:none;stroke-linejoin:miter"
       id="path77" />
  </g>
  <g
     id="patch_15"
     style="stroke:none"
     transform="translate(-4.1187071,-10.979216)">
    <path
       d="m 425.83932,297.79327 h 26.96429 V 106.10663 h -26.96429 z"
       clip-path="url(#peab4244a7a)"
       style="fill:#6495ed;stroke:none;stroke-linejoin:miter"
       id="path78" />
  </g>
  <g
     id="patch_16"
     style="stroke:none"
     transform="translate(-4.1187071,-10.979216)">
    <path
       d="m 488.54698,297.79327 h 26.96429 V 90.301507 h -26.96429 z"
       clip-path="url(#peab4244a7a)"
       style="fill:#6495ed;stroke:none;stroke-linejoin:miter"
       id="path79" />
  </g>
  <path
     d="M 59.709293,286.81405 H 532.90129"
     style="fill:none;stroke:#000000;stroke-width:1.25;stroke-linecap:square;stroke-linejoin:miter;stroke-opacity:1"
     id="path82" />
  <g
     id="g256"
     transform="translate(-1.6444102,-12.898154)">
    <rect
       style="opacity:1;fill:#ffffff;fill-opacity:1;stroke:#eaeaf2;stroke-width:1.57605;stroke-linecap:square;stroke-dasharray:none;stroke-opacity:1"
       id="rect255"
       width="187.96541"
       height="37.728626"
       x="346.41727"
       y="20.65876"
       ry="5.8867364" />
    <g
       id="g255"
       transform="translate(-0.87481131,0.33239573)">
      <g
         id="patch_22"
         transform="matrix(1,0,0,1.21,-194.53201,-155.38733)"
         style="stroke:none">
        <path
           d="m 546.92,157.65898 h 22 v -7.7 h -22 z"
           style="fill:#fffacd;stroke:none;stroke-linejoin:miter"
           id="path195" />
      </g>
      <g
         id="text_33"
         transform="matrix(1.21,0,0,1.21,-318.33117,-155.47053)">
        <!-- V0 (No B-Vitamins) -->
        <g
           style="fill:#262626"
           transform="matrix(0.11,0,0,-0.11,577.72,157.65898)"
           id="g212">
          <defs
             id="defs195">
            <path
               id="DejaVuSans-56"
               d="M 1831,0 50,4666 H 709 L 2188,738 3669,4666 h 656 L 2547,0 Z"
               transform="scale(0.015625)" />
            <path
               id="DejaVuSans-4e"
               d="m 628,4666 h 850 L 3547,763 v 3903 h 612 V 0 H 3309 L 1241,3903 V 0 H 628 Z"
               transform="scale(0.015625)" />
            <path
               id="DejaVuSans-2d"
               d="M 313,2009 H 1997 V 1497 H 313 Z"
               transform="scale(0.015625)" />
          </defs>
          <use
             xlink:href="#DejaVuSans-56"
             id="use195" />
          <path
             id="use196"
             d="m 100.18945,66.40625 q -7.609372,0 -11.453122,-7.5 -3.828125,-7.484375 -3.828125,-22.53125 0,-14.984375 3.828125,-22.484375 3.84375,-7.5 11.453122,-7.5 7.67188,0 11.5,7.5 3.84375,7.5 3.84375,22.484375 0,15.046875 -3.84375,22.53125 -3.82812,7.5 -11.5,7.5 z m 0,7.8125 q 12.26563,0 18.73438,-9.703125 6.46875,-9.6875 6.46875,-28.140625 0,-18.40625 -6.46875,-28.109375 -6.46875,-9.6875 -18.73438,-9.6875 -12.249997,0 -18.718747,9.6875 -6.46875,9.703125 -6.46875,28.109375 0,18.453125 6.46875,28.140625 6.46875,9.703125 18.718747,9.703125 z"
             style="stroke-width:0.015625" />
          <use
             xlink:href="#DejaVuSans-20"
             transform="translate(132.03125)"
             id="use197" />
          <use
             xlink:href="#DejaVuSans-28"
             transform="translate(163.81836)"
             id="use198" />
          <use
             xlink:href="#DejaVuSans-4e"
             transform="translate(202.83203)"
             id="use199" />
          <path
             id="use200"
             d="m 308.2461,48.390625 q -7.21875,0 -11.42188,-5.640625 -4.20312,-5.640625 -4.20312,-15.453125 0,-9.8125 4.17187,-15.453125 4.1875,-5.640625 11.45313,-5.640625 7.1875,0 11.375,5.65625 4.20312,5.671875 4.20312,15.4375 0,9.71875 -4.20312,15.40625 -4.1875,5.6875 -11.375,5.6875 z m 0,7.609375 q 11.71875,0 18.40625,-7.625 6.70312,-7.609375 6.70312,-21.078125 0,-13.421875 -6.70312,-21.078125 -6.6875,-7.640625 -18.40625,-7.640625 -11.76563,0 -18.4375,7.640625 -6.65625,7.65625 -6.65625,21.078125 0,13.46875 6.65625,21.078125 Q 296.48047,56 308.2461,56 Z"
             style="stroke-width:0.015625" />
          <use
             xlink:href="#DejaVuSans-20"
             transform="translate(338.81836)"
             id="use201" />
          <path
             id="use202"
             d="M 390.27735,34.8125 V 8.109375 h 15.82812 q 7.95313,0 11.78125,3.296875 3.84375,3.296875 3.84375,10.078125 0,6.84375 -3.84375,10.078125 -3.82812,3.25 -11.78125,3.25 z m 0,29.984375 v -21.96875 h 14.60937 q 7.21875,0 10.75,2.703125 3.54688,2.71875 3.54688,8.28125 0,5.515625 -3.54688,8.25 -3.53125,2.734375 -10.75,2.734375 z m -9.85938,8.109375 h 25.20313 q 11.28125,0 17.375,-4.6875 6.10937,-4.6875 6.10937,-13.328125 0,-6.703125 -3.125,-10.65625 -3.125,-3.953125 -9.1875,-4.921875 7.28125,-1.5625 11.3125,-6.53125 4.03125,-4.953125 4.03125,-12.375 0,-9.765625 -6.64062,-15.09375 Q 418.85547,0 406.58985,0 h -26.17188 z"
             style="stroke-width:0.015625" />
          <use
             xlink:href="#DejaVuSans-2d"
             transform="translate(439.20898)"
             id="use203" />
          <use
             xlink:href="#DejaVuSans-56"
             transform="translate(469.41797)"
             id="use204" />
          <path
             id="use205"
             d="m 544.99805,54.6875 h 8.98437 V 0 h -8.98437 z m 0,21.296875 h 8.98437 V 64.59375 h -8.98437 z"
             style="stroke-width:0.015625" />
          <path
             id="use206"
             d="M 581.67187,70.21875 V 54.6875 h 18.5 v -6.984375 h -18.5 v -29.6875 q 0,-6.6875 1.82813,-8.59375 1.82812,-1.90625 7.45312,-1.90625 h 9.21875 V 0 h -9.21875 q -10.40625,0 -14.35937,3.875 -3.95313,3.890625 -3.95313,14.140625 v 29.6875 h -6.59375 V 54.6875 h 6.59375 v 15.53125 z"
             style="stroke-width:0.015625" />
          <path
             id="use207"
             d="m 636.84961,27.484375 q -10.89063,0 -15.09375,-2.484375 -4.20313,-2.484375 -4.20313,-8.5 0,-4.78125 3.15625,-7.59375 3.15625,-2.796875 8.5625,-2.796875 7.48438,0 12,5.296875 4.51563,5.296875 4.51563,14.078125 v 2 z m 17.92187,3.71875 V 0 h -8.98437 v 8.296875 q -3.07813,-4.96875 -7.67188,-7.34375 -4.59375,-2.375 -11.23437,-2.375 -8.39063,0 -13.35938,4.71875 -4.95312,4.71875 -4.95312,12.625 0,9.21875 6.17187,13.90625 6.1875,4.6875 18.4375,4.6875 h 12.60938 v 0.890625 q 0,6.203125 -4.07813,9.59375 -4.07812,3.390625 -11.45312,3.390625 -4.6875,0 -9.14063,-1.125 -4.4375,-1.125 -8.53125,-3.375 v 8.3125 q 4.92188,1.90625 9.5625,2.84375 Q 626.78711,56 631.17773,56 q 11.875,0 17.73438,-6.15625 5.85937,-6.140625 5.85937,-18.640625 z"
             style="stroke-width:0.015625" />
          <path
             id="use208"
             d="m 715.84766,44.1875 q 3.375,6.0625 8.0625,8.9375 4.6875,2.875 11.03125,2.875 8.54688,0 13.1875,-5.984375 4.64063,-5.96875 4.64063,-17 V 0 h -9.03125 v 32.71875 q 0,7.859375 -2.79688,11.65625 -2.78125,3.8125 -8.48437,3.8125 -6.98438,0 -11.04688,-4.640625 -4.04687,-4.625 -4.04687,-12.640625 V 0 h -9.03125 v 32.71875 q 0,7.90625 -2.78125,11.6875 -2.78125,3.78125 -8.59375,3.78125 -6.89063,0 -10.95313,-4.65625 -4.04687,-4.65625 -4.04687,-12.625 V 0 h -9.03125 v 54.6875 h 9.03125 v -8.5 q 3.07812,5.03125 7.375,7.421875 Q 693.62891,56 699.53516,56 q 5.96875,0 10.14063,-3.03125 4.17187,-3.015625 6.17187,-8.78125 z"
             style="stroke-width:0.015625" />
          <path
             id="use209"
             d="m 770.68164,54.6875 h 8.98438 V 0 h -8.98438 z m 0,21.296875 h 8.98438 V 64.59375 h -8.98438 z"
             style="stroke-width:0.015625" />
          <path
             id="use210"
             d="M 843.93359,33.015625 V 0 h -8.98437 v 32.71875 q 0,7.765625 -3.03125,11.609375 -3.03125,3.859375 -9.07813,3.859375 -7.28125,0 -11.48437,-4.640625 -4.20313,-4.625 -4.20313,-12.640625 V 0 h -9.03125 v 54.6875 h 9.03125 v -8.5 q 3.23438,4.9375 7.59375,7.375 4.375,2.4375 10.09375,2.4375 9.42188,0 14.25,-5.828125 4.84375,-5.828125 4.84375,-17.15625 z"
             style="stroke-width:0.015625" />
          <path
             id="use211"
             d="m 896.70312,53.078125 v -8.5 q -3.79687,1.953125 -7.90625,2.921875 -4.09375,0.984375 -8.5,0.984375 -6.6875,0 -10.03125,-2.046875 -3.34375,-2.046875 -3.34375,-6.15625 0,-3.125 2.39063,-4.90625 2.39062,-1.78125 9.625,-3.390625 l 3.07812,-0.6875 q 9.5625,-2.046875 13.59375,-5.78125 4.03125,-3.734375 4.03125,-10.421875 0,-7.625 -6.03125,-12.078125 -6.03125,-4.4375 -16.57812,-4.4375 -4.39063,0 -9.15625,0.859375 Q 863.10937,0.296875 857.84375,2 v 9.28125 q 4.98437,-2.59375 9.8125,-3.890625 4.82812,-1.28125 9.57812,-1.28125 6.34375,0 9.75,2.171875 3.42188,2.171875 3.42188,6.125 0,3.65625 -2.46875,5.609375 -2.45313,1.953125 -10.8125,3.765625 L 874,24.515625 q -8.34375,1.75 -12.0625,5.390625 -3.70313,3.640625 -3.70313,9.984375 0,7.71875 5.46875,11.90625 Q 869.17187,56 879.23437,56 q 4.96875,0 9.35938,-0.734375 4.40625,-0.71875 8.10937,-2.1875 z"
             style="stroke-width:0.015625" />
          <use
             xlink:href="#DejaVuSans-29"
             transform="translate(904.52148)"
             id="use212" />
        </g>
      </g>
      <g
         id="patch_23"
         transform="matrix(1,0,0,1.21,-194.53201,-158.77797)"
         style="stroke:none">
        <path
           d="m 546.92,173.80492 h 22 v -7.7 h -22 z"
           style="fill:#6495ed;stroke:none;stroke-linejoin:miter"
           id="path212" />
      </g>
      <g
         id="text_34"
         transform="matrix(1.21,0,0,1.21,-318.33117,-158.86117)">
        <!-- V8 (Full B-Vitamin Mix) -->
        <g
           style="fill:#262626"
           transform="matrix(0.11,0,0,-0.11,577.72,173.80492)"
           id="g235">
          <defs
             id="defs212">
            <path
               id="DejaVuSans-46"
               d="M 628,4666 H 3309 V 4134 H 1259 V 2759 H 3109 V 2228 H 1259 V 0 H 628 Z"
               transform="scale(0.015625)" />
            <path
               id="DejaVuSans-4d"
               d="m 628,4666 h 941 L 2759,1491 3956,4666 h 941 V 0 H 4281 V 4097 L 3078,897 H 2444 L 1241,4097 V 0 H 628 Z"
               transform="scale(0.015625)" />
            <path
               id="DejaVuSans-78"
               d="M 3513,3500 2247,1797 3578,0 H 2900 L 1881,1375 863,0 H 184 L 1544,1831 300,3500 h 678 l 928,-1247 928,1247 z"
               transform="scale(0.015625)" />
          </defs>
          <use
             xlink:href="#DejaVuSans-56"
             id="use213" />
          <path
             id="use214"
             d="m 100.18945,34.625 q -7.031247,0 -11.062497,-3.765625 -4.015625,-3.765625 -4.015625,-10.34375 0,-6.59375 4.015625,-10.359375 4.03125,-3.765625 11.062497,-3.765625 7.03125,0 11.07813,3.78125 4.0625,3.796875 4.0625,10.34375 0,6.578125 -4.03125,10.34375 Q 107.2832,34.625 100.18945,34.625 Z m -9.859372,4.1875 q -6.34375,1.5625 -9.890625,5.90625 -3.53125,4.359375 -3.53125,10.609375 0,8.734375 6.21875,13.8125 6.234375,5.078125 17.062497,5.078125 10.89063,0 17.09375,-5.078125 6.20313,-5.078125 6.20313,-13.8125 0,-6.25 -3.54688,-10.609375 -3.53125,-4.34375 -9.82812,-5.90625 7.125,-1.65625 11.09375,-6.5 3.98437,-4.828125 3.98437,-11.796875 0,-10.609375 -6.46875,-16.28125 -6.46875,-5.65625 -18.53125,-5.65625 -12.046872,0 -18.531247,5.65625 -6.46875,5.671875 -6.46875,16.28125 0,6.96875 4,11.796875 4.015625,4.84375 11.140625,6.5 z m -3.609375,15.578125 q 0,-5.65625 3.53125,-8.828125 3.546875,-3.171875 9.937497,-3.171875 6.35938,0 9.9375,3.171875 3.59375,3.171875 3.59375,8.828125 0,5.671875 -3.59375,8.84375 -3.57812,3.171875 -9.9375,3.171875 -6.390622,0 -9.937497,-3.171875 -3.53125,-3.171875 -3.53125,-8.84375 z"
             style="stroke-width:0.015625" />
          <use
             xlink:href="#DejaVuSans-20"
             transform="translate(132.03125)"
             id="use215" />
          <use
             xlink:href="#DejaVuSans-28"
             transform="translate(163.81836)"
             id="use216" />
          <use
             xlink:href="#DejaVuSans-46"
             transform="translate(202.83203)"
             id="use217" />
          <path
             id="use218"
             d="M 263.35156,21.578125 V 54.6875 h 8.98437 V 21.921875 q 0,-7.765625 3.01563,-11.65625 3.03125,-3.875 9.09375,-3.875 7.26562,0 11.48437,4.640625 4.23438,4.640625 4.23438,12.65625 v 31 h 8.98437 V 0 h -8.98437 V 8.40625 Q 296.89843,3.421875 292.57031,1 q -4.3125,-2.421875 -10.03125,-2.421875 -9.42188,0 -14.3125,5.859375 -4.875,5.859375 -4.875,17.140625 z M 285.96093,56 Z"
             style="stroke-width:0.015625" />
          <path
             id="use219"
             d="m 327.65235,75.984375 h 8.98437 V 0 h -8.98437 z"
             style="stroke-width:0.015625" />
          <path
             id="use220"
             d="m 355.43554,75.984375 h 8.98438 V 0 h -8.98438 z"
             style="stroke-width:0.015625" />
          <use
             xlink:href="#DejaVuSans-20"
             transform="translate(373.79687)"
             id="use221" />
          <path
             id="use222"
             d="M 425.25585,34.8125 V 8.109375 h 15.82813 q 7.95312,0 11.78125,3.296875 3.84375,3.296875 3.84375,10.078125 0,6.84375 -3.84375,10.078125 -3.82813,3.25 -11.78125,3.25 z m 0,29.984375 v -21.96875 h 14.60938 q 7.21875,0 10.75,2.703125 3.54687,2.71875 3.54687,8.28125 0,5.515625 -3.54687,8.25 -3.53125,2.734375 -10.75,2.734375 z m -9.85937,8.109375 h 25.20312 q 11.28125,0 17.375,-4.6875 6.10938,-4.6875 6.10938,-13.328125 0,-6.703125 -3.125,-10.65625 -3.125,-3.953125 -9.1875,-4.921875 7.28125,-1.5625 11.3125,-6.53125 4.03125,-4.953125 4.03125,-12.375 0,-9.765625 -6.64063,-15.09375 Q 453.83398,0 441.56835,0 h -26.17187 z"
             style="stroke-width:0.015625" />
          <use
             xlink:href="#DejaVuSans-2d"
             transform="translate(474.1875)"
             id="use223" />
          <use
             xlink:href="#DejaVuSans-56"
             transform="translate(504.39648)"
             id="use224" />
          <path
             id="use225"
             d="m 579.97657,54.6875 h 8.98437 V 0 h -8.98437 z m 0,21.296875 h 8.98437 V 64.59375 h -8.98437 z"
             style="stroke-width:0.015625" />
          <path
             id="use226"
             d="M 616.65039,70.21875 V 54.6875 h 18.5 v -6.984375 h -18.5 v -29.6875 q 0,-6.6875 1.82813,-8.59375 1.82812,-1.90625 7.45312,-1.90625 h 9.21875 V 0 h -9.21875 q -10.40625,0 -14.35937,3.875 -3.95313,3.890625 -3.95313,14.140625 v 29.6875 h -6.59375 V 54.6875 h 6.59375 v 15.53125 z"
             style="stroke-width:0.015625" />
          <path
             id="use227"
             d="m 671.82812,27.484375 q -10.89062,0 -15.09375,-2.484375 -4.20312,-2.484375 -4.20312,-8.5 0,-4.78125 3.15625,-7.59375 3.15625,-2.796875 8.5625,-2.796875 7.48437,0 12,5.296875 4.51562,5.296875 4.51562,14.078125 v 2 z M 689.75,31.203125 V 0 h -8.98438 v 8.296875 q -3.07812,-4.96875 -7.67187,-7.34375 -4.59375,-2.375 -11.23438,-2.375 -8.39062,0 -13.35937,4.71875 -4.95313,4.71875 -4.95313,12.625 0,9.21875 6.17188,13.90625 6.1875,4.6875 18.4375,4.6875 h 12.60937 v 0.890625 q 0,6.203125 -4.07812,9.59375 -4.07813,3.390625 -11.45313,3.390625 -4.6875,0 -9.14062,-1.125 -4.4375,-1.125 -8.53125,-3.375 v 8.3125 q 4.92187,1.90625 9.5625,2.84375 Q 661.76562,56 666.15625,56 q 11.875,0 17.73437,-6.15625 Q 689.75,43.703125 689.75,31.203125 Z"
             style="stroke-width:0.015625" />
          <path
             id="use228"
             d="m 750.82617,44.1875 q 3.375,6.0625 8.0625,8.9375 4.6875,2.875 11.03125,2.875 8.54688,0 13.1875,-5.984375 4.64063,-5.96875 4.64063,-17 V 0 h -9.03125 v 32.71875 q 0,7.859375 -2.79688,11.65625 -2.78125,3.8125 -8.48437,3.8125 -6.98438,0 -11.04688,-4.640625 -4.04687,-4.625 -4.04687,-12.640625 V 0 h -9.03125 v 32.71875 q 0,7.90625 -2.78125,11.6875 -2.78125,3.78125 -8.59375,3.78125 -6.89063,0 -10.95313,-4.65625 -4.04687,-4.65625 -4.04687,-12.625 V 0 h -9.03125 v 54.6875 h 9.03125 v -8.5 q 3.07812,5.03125 7.375,7.421875 Q 728.60742,56 734.51367,56 q 5.96875,0 10.14063,-3.03125 4.17187,-3.015625 6.17187,-8.78125 z"
             style="stroke-width:0.015625" />
          <path
             id="use229"
             d="m 805.66016,54.6875 h 8.98437 V 0 h -8.98437 z m 0,21.296875 h 8.98437 V 64.59375 h -8.98437 z"
             style="stroke-width:0.015625" />
          <path
             id="use230"
             d="M 878.9121,33.015625 V 0 h -8.98437 v 32.71875 q 0,7.765625 -3.03125,11.609375 -3.03125,3.859375 -9.07813,3.859375 -7.28125,0 -11.48437,-4.640625 -4.20313,-4.625 -4.20313,-12.640625 V 0 h -9.03125 v 54.6875 h 9.03125 v -8.5 q 3.23438,4.9375 7.59375,7.375 4.375,2.4375 10.09375,2.4375 9.42188,0 14.25,-5.828125 4.84375,-5.828125 4.84375,-17.15625 z"
             style="stroke-width:0.015625" />
          <use
             xlink:href="#DejaVuSans-20"
             transform="translate(887.40039)"
             id="use231" />
          <use
             xlink:href="#DejaVuSans-4d"
             transform="translate(919.1875)"
             id="use232" />
          <path
             id="use233"
             d="m 1014.8887,54.6875 h 8.9844 V 0 h -8.9844 z m 0,21.296875 h 8.9844 V 64.59375 h -8.9844 z"
             style="stroke-width:0.015625" />
          <use
             xlink:href="#DejaVuSans-78"
             transform="translate(1033.25)"
             id="use234" />
          <use
             xlink:href="#DejaVuSans-29"
             transform="translate(1092.4297)"
             id="use235" />
        </g>
      </g>
    </g>
  </g>
  <defs
     id="defs235">
    <clipPath
       id="peab4244a7a">
      <rect
         x="63.827999"
         y="27.6"
         width="473.19199"
         height="270.19327"
         id="rect235" />
    </clipPath>
  </defs>
  <g
     id="text_1"
     style="stroke-linecap:butt;stroke-linejoin:round"
     transform="matrix(1.331,0,0,1.331,-47.282147,-118.60144)">
    <!-- Sma -->
    <g
       style="fill:#262626;stroke-linecap:butt;stroke-linejoin:round"
       transform="matrix(0.07778175,-0.07778175,-0.07778175,-0.07778175,105.80685,330.48439)"
       id="g5">
      <defs
         id="defs3">
        <path
           id="path237"
           d="m 3425,4513 v -616 q -359,172 -678,256 -319,85 -616,85 -515,0 -795,-200 -280,-200 -280,-569 0,-310 186,-468 186,-157 705,-254 l 381,-78 q 706,-135 1042,-474 336,-339 336,-907 0,-679 -455,-1029 -454,-350 -1332,-350 -331,0 -705,75 -373,75 -773,222 v 650 q 384,-215 753,-325 369,-109 725,-109 540,0 834,212 294,213 294,607 0,343 -211,537 -211,194 -692,291 l -385,75 q -706,140 -1022,440 -315,300 -315,835 0,619 436,975 436,356 1201,356 329,0 669,-60 341,-59 697,-177 z"
           transform="scale(0.015625)" />
        <path
           id="path238"
           d="m 3328,2828 q 216,388 516,572 300,184 706,184 547,0 844,-383 297,-382 297,-1088 V 0 h -578 v 2094 q 0,503 -179,746 -178,244 -543,244 -447,0 -707,-297 -259,-296 -259,-809 V 0 h -578 v 2094 q 0,506 -178,748 -178,242 -550,242 -441,0 -701,-298 -259,-298 -259,-808 V 0 H 581 v 3500 h 578 v -544 q 197,322 472,475 275,153 653,153 382,0 649,-194 267,-193 395,-562 z"
           transform="scale(0.015625)" />
        <path
           id="path239"
           d="m 2194,1759 q -697,0 -966,-159 -269,-159 -269,-544 0,-306 202,-486 202,-179 548,-179 479,0 768,339 289,339 289,901 v 128 z m 1147,238 V 0 H 2766 V 531 Q 2569,213 2275,61 1981,-91 1556,-91 q -537,0 -855,302 -317,302 -317,808 0,590 395,890 396,300 1180,300 h 807 v 57 q 0,397 -261,614 -261,217 -733,217 -300,0 -585,-72 -284,-72 -546,-216 v 532 q 315,122 612,182 297,61 578,61 760,0 1135,-394 375,-393 375,-1193 z"
           transform="scale(0.015625)" />
      </defs>
      <use
         xlink:href="#DejaVuSans-53"
         id="use3"
         style="stroke-linecap:butt;stroke-linejoin:round" />
      <use
         xlink:href="#DejaVuSans-6d"
         transform="translate(63.476562)"
         id="use4"
         style="stroke-linecap:butt;stroke-linejoin:round" />
      <use
         xlink:href="#DejaVuSans-61"
         transform="translate(160.88867)"
         id="use5"
         style="stroke-linecap:butt;stroke-linejoin:round" />
    </g>
  </g>
  <g
     id="text_2"
     style="stroke-linecap:butt;stroke-linejoin:round"
     transform="matrix(1.331,0,0,1.331,-67.93528,-117.39545)">
    <!-- Bpi -->
    <g
       style="fill:#262626;stroke-linecap:butt;stroke-linejoin:round"
       transform="matrix(0.07778175,-0.07778175,-0.07778175,-0.07778175,170.93729,325.63883)"
       id="g8">
      <defs
         id="defs5">
        <path
           id="path240"
           d="M 1259,2228 V 519 h 1013 q 509,0 754,211 246,211 246,645 0,438 -246,645 -245,208 -754,208 z m 0,1919 V 2741 h 935 q 462,0 688,173 227,174 227,530 0,353 -227,528 -226,175 -688,175 z m -631,519 h 1613 q 722,0 1112,-300 391,-300 391,-853 0,-429 -200,-682 -200,-253 -588,-315 466,-100 724,-418 258,-317 258,-792 0,-625 -425,-966 Q 3088,0 2303,0 H 628 Z"
           transform="scale(0.015625)" />
        <path
           id="path241"
           d="M 1159,525 V -1331 H 581 v 4831 h 578 v -531 q 182,312 458,463 277,152 661,152 638,0 1036,-506 399,-506 399,-1331 0,-825 -399,-1332 -398,-506 -1036,-506 -384,0 -661,152 -276,152 -458,464 z m 1957,1222 q 0,634 -261,995 -261,361 -717,361 -457,0 -718,-361 -261,-361 -261,-995 0,-634 261,-995 261,-361 718,-361 456,0 717,361 261,361 261,995 z"
           transform="scale(0.015625)" />
        <path
           id="path242"
           d="m 603,3500 h 575 V 0 H 603 Z m 0,1363 h 575 V 4134 H 603 Z"
           transform="scale(0.015625)" />
      </defs>
      <use
         xlink:href="#DejaVuSans-42"
         id="use6"
         style="stroke-linecap:butt;stroke-linejoin:round" />
      <use
         xlink:href="#DejaVuSans-70"
         transform="translate(68.603516)"
         id="use7"
         style="stroke-linecap:butt;stroke-linejoin:round" />
      <use
         xlink:href="#DejaVuSans-69"
         transform="translate(132.08008)"
         id="use8"
         style="stroke-linecap:butt;stroke-linejoin:round" />
    </g>
  </g>
  <g
     id="text_3"
     style="stroke-linecap:butt;stroke-linejoin:round"
     transform="matrix(1.331,0,0,1.331,-88.877115,-117.95948)">
    <!-- Cpu -->
    <g
       style="fill:#262626;stroke-linecap:butt;stroke-linejoin:round"
       transform="matrix(0.07778175,-0.07778175,-0.07778175,-0.07778175,232.21328,328.50217)"
       id="g11">
      <defs
         id="defs8">
        <path
           id="path243"
           d="m 4122,4306 v -665 q -319,297 -680,443 -361,147 -767,147 -800,0 -1225,-489 -425,-489 -425,-1414 0,-922 425,-1411 425,-489 1225,-489 406,0 767,147 361,147 680,444 V 359 Q 3791,134 3420,21 3050,-91 2638,-91 1578,-91 968,557 359,1206 359,2328 q 0,1125 609,1773 610,649 1670,649 418,0 788,-111 371,-111 696,-333 z"
           transform="scale(0.015625)" />
        <path
           id="path244"
           d="m 544,1381 v 2119 h 575 V 1403 q 0,-497 193,-746 194,-248 582,-248 465,0 735,297 271,297 271,810 v 1984 h 575 V 0 H 2900 V 538 Q 2691,219 2414,64 2138,-91 1772,-91 1169,-91 856,284 544,659 544,1381 Z m 1447,2203 z"
           transform="scale(0.015625)" />
      </defs>
      <use
         xlink:href="#DejaVuSans-43"
         id="use9"
         style="stroke-linecap:butt;stroke-linejoin:round" />
      <use
         xlink:href="#DejaVuSans-70"
         transform="translate(69.824219)"
         id="use10"
         style="stroke-linecap:butt;stroke-linejoin:round" />
      <use
         xlink:href="#DejaVuSans-75"
         transform="translate(133.30078)"
         id="use11"
         style="stroke-linecap:butt;stroke-linejoin:round" />
    </g>
  </g>
  <g
     id="text_4"
     style="stroke-linecap:butt;stroke-linejoin:round"
     transform="matrix(1.331,0,0,1.331,-109.45173,-117.59443)">
    <!-- Elu -->
    <g
       style="fill:#262626;stroke-linecap:butt;stroke-linejoin:round"
       transform="matrix(0.07778175,-0.07778175,-0.07778175,-0.07778175,296.56773,325.2086)"
       id="g14">
      <defs
         id="defs11">
        <path
           id="path245"
           d="M 628,4666 H 3578 V 4134 H 1259 V 2753 H 3481 V 2222 H 1259 V 531 H 3634 V 0 H 628 Z"
           transform="scale(0.015625)" />
        <path
           id="path246"
           d="m 603,4863 h 575 V 0 H 603 Z"
           transform="scale(0.015625)" />
      </defs>
      <use
         xlink:href="#DejaVuSans-45"
         id="use12"
         style="stroke-linecap:butt;stroke-linejoin:round" />
      <use
         xlink:href="#DejaVuSans-6c"
         transform="translate(63.183594)"
         id="use13"
         style="stroke-linecap:butt;stroke-linejoin:round" />
      <use
         xlink:href="#DejaVuSans-75"
         transform="translate(90.966797)"
         id="use14"
         style="stroke-linecap:butt;stroke-linejoin:round" />
    </g>
  </g>
  <g
     id="text_5"
     style="stroke-linecap:butt;stroke-linejoin:round"
     transform="matrix(1.331,0,0,1.331,-130.39736,-117.61136)">
    <!-- Cin -->
    <g
       style="fill:#262626;stroke-linecap:butt;stroke-linejoin:round"
       transform="matrix(0.07778175,-0.07778175,-0.07778175,-0.07778175,359.01713,325.72512)"
       id="g17">
      <defs
         id="defs14">
        <path
           id="path247"
           d="M 3513,2113 V 0 h -575 v 2094 q 0,497 -194,743 -194,247 -581,247 -466,0 -735,-297 -269,-296 -269,-809 V 0 H 581 v 3500 h 578 v -544 q 207,316 486,472 280,156 646,156 603,0 912,-373 310,-373 310,-1098 z"
           transform="scale(0.015625)" />
      </defs>
      <use
         xlink:href="#DejaVuSans-43"
         id="use15"
         style="stroke-linecap:butt;stroke-linejoin:round" />
      <use
         xlink:href="#DejaVuSans-69"
         transform="translate(69.824219)"
         id="use16"
         style="stroke-linecap:butt;stroke-linejoin:round" />
      <use
         xlink:href="#DejaVuSans-6e"
         transform="translate(97.607422)"
         id="use17"
         style="stroke-linecap:butt;stroke-linejoin:round" />
    </g>
  </g>
  <g
     id="text_6"
     style="stroke-linecap:butt;stroke-linejoin:round"
     transform="matrix(1.331,0,0,1.331,-150.84522,-117.98377)">
    <!-- Hro -->
    <g
       style="fill:#262626;stroke-linecap:butt;stroke-linejoin:round"
       transform="matrix(0.07778175,-0.07778175,-0.07778175,-0.07778175,421.16998,326.83472)"
       id="g20">
      <defs
         id="defs17">
        <path
           id="path248"
           d="m 628,4666 h 631 V 2753 h 2294 v 1913 h 631 V 0 H 3553 V 2222 H 1259 V 0 H 628 Z"
           transform="scale(0.015625)" />
        <path
           id="path249"
           d="m 2631,2963 q -97,56 -211,82 -114,27 -251,27 -488,0 -749,-317 -261,-317 -261,-911 V 0 H 581 v 3500 h 578 v -544 q 182,319 472,473 291,155 707,155 59,0 131,-8 72,-7 159,-23 z"
           transform="scale(0.015625)" />
        <path
           id="path250"
           d="m 1959,3097 q -462,0 -731,-361 -269,-361 -269,-989 0,-628 267,-989 268,-361 733,-361 460,0 728,362 269,363 269,988 0,622 -269,986 -268,364 -728,364 z m 0,487 q 750,0 1178,-488 429,-487 429,-1349 Q 3566,888 3137,398 2709,-91 1959,-91 1206,-91 779,398 353,888 353,1747 q 0,862 426,1349 427,488 1180,488 z"
           transform="scale(0.015625)" />
      </defs>
      <use
         xlink:href="#DejaVuSans-48"
         id="use18"
         style="stroke-linecap:butt;stroke-linejoin:round" />
      <use
         xlink:href="#DejaVuSans-72"
         transform="translate(75.195312)"
         id="use19"
         style="stroke-linecap:butt;stroke-linejoin:round" />
      <use
         xlink:href="#DejaVuSans-6f"
         transform="translate(114.05859)"
         id="use20"
         style="stroke-linecap:butt;stroke-linejoin:round" />
    </g>
  </g>
  <g
     id="text_7"
     style="stroke-linecap:butt;stroke-linejoin:round"
     transform="matrix(1.331,0,0,1.331,-171.72043,-118.01682)">
    <!-- Ppu -->
    <g
       style="fill:#262626;stroke-linecap:butt;stroke-linejoin:round"
       transform="matrix(0.07778175,-0.07778175,-0.07778175,-0.07778175,483.4146,327.76081)"
       id="g23">
      <defs
         id="defs20">
        <path
           id="path251"
           d="M 1259,4147 V 2394 h 794 q 441,0 681,228 241,228 241,650 0,419 -241,647 -240,228 -681,228 z m -631,519 h 1425 q 785,0 1186,-355 402,-355 402,-1039 0,-691 -402,-1044 -401,-353 -1186,-353 H 1259 V 0 H 628 Z"
           transform="scale(0.015625)" />
      </defs>
      <use
         xlink:href="#DejaVuSans-50"
         id="use21"
         style="stroke-linecap:butt;stroke-linejoin:round" />
      <use
         xlink:href="#DejaVuSans-70"
         transform="translate(60.302734)"
         id="use22"
         style="stroke-linecap:butt;stroke-linejoin:round" />
      <use
         xlink:href="#DejaVuSans-75"
         transform="translate(123.7793)"
         id="use23"
         style="stroke-linecap:butt;stroke-linejoin:round" />
    </g>
  </g>
  <path
     style="fill:none;stroke:#000000;stroke-width:1.5;stroke-linecap:square;stroke-dasharray:none;stroke-opacity:1"
     d="m 345.5308,160.7858 v -34.00153 h 26.9643 v 7.78794"
     id="path253"
     sodipodi:nodetypes="cccc" />
  <path
     style="fill:none;stroke:#000000;stroke-width:1.5;stroke-linecap:square;stroke-linejoin:round;stroke-dasharray:none;stroke-opacity:1"
     d="M 470.94612,103.56877 V 69.567244 h 26.9643 l 0.0434,9.006466"
     id="path253-3"
     sodipodi:nodetypes="cccc" />
  <text
     xml:space="preserve"
     style="font-size:14px;line-height:1.1;font-family:sans;-inkscape-font-specification:sans;text-align:start;letter-spacing:0px;writing-mode:lr-tb;direction:ltr;text-anchor:start;fill:#262626;fill-opacity:1;stroke:none;stroke-width:1.5;stroke-linecap:square;stroke-dasharray:none;stroke-opacity:1"
     x="205.13962"
     y="234.39716"
     id="text254"><tspan
       sodipodi:role="line"
       id="tspan254"
       style="font-size:14px;fill:#262626;fill-opacity:1;stroke-width:1.5"
       x="205.13962"
       y="234.39716">+31.6%</tspan></text>
  <text
     xml:space="preserve"
     style="font-size:14px;line-height:1.1;font-family:sans;-inkscape-font-specification:sans;text-align:start;letter-spacing:0px;writing-mode:lr-tb;direction:ltr;text-anchor:start;fill:#262626;fill-opacity:1;stroke:none;stroke-width:1.5;stroke-linecap:square;stroke-linejoin:round;stroke-dasharray:none;stroke-opacity:1"
     x="330.55493"
     y="123.83981"
     id="text254-9"><tspan
       sodipodi:role="line"
       id="tspan254-3"
       style="font-size:14px;fill:#262626;fill-opacity:1;stroke-width:1.5"
       x="330.55493"
       y="123.83981">+20.9%</tspan></text>
  <text
     xml:space="preserve"
     style="font-size:14px;line-height:1.1;font-family:sans;-inkscape-font-specification:sans;text-align:start;letter-spacing:0px;writing-mode:lr-tb;direction:ltr;text-anchor:start;fill:#262626;fill-opacity:1;stroke:none;stroke-width:1.5;stroke-linecap:square;stroke-linejoin:round;stroke-dasharray:none;stroke-opacity:1"
     x="455.99377"
     y="66.334999"
     id="text254-9-6"><tspan
       sodipodi:role="line"
       id="tspan254-3-2"
       style="font-size:14px;fill:#262626;fill-opacity:1;stroke-width:1.5"
       x="455.99377"
       y="66.334999">+13.7%</tspan></text>
  <text
     xml:space="preserve"
     style="font-size:13px;line-height:1.1;font-family:sans;-inkscape-font-specification:sans;text-align:start;letter-spacing:0px;writing-mode:lr-tb;direction:ltr;text-anchor:start;opacity:1;fill:#262626;fill-opacity:1;stroke:none;stroke-width:1.5;stroke-linecap:square;stroke-dasharray:none;stroke-opacity:1"
     x="37.313709"
     y="43.753418"
     id="text256"><tspan
       sodipodi:role="line"
       id="tspan256"
       style="font-size:13px;fill:#262626;fill-opacity:1;stroke:none;stroke-width:1.5"
       x="37.313709"
       y="43.753418">14</tspan></text>
  <text
     xml:space="preserve"
     style="font-size:13px;line-height:1.1;font-family:sans;-inkscape-font-specification:sans;text-align:start;letter-spacing:0px;writing-mode:lr-tb;direction:ltr;text-anchor:start;fill:#262626;fill-opacity:1;stroke:none;stroke-width:1.5;stroke-linecap:square;stroke-linejoin:round;stroke-dasharray:none;stroke-opacity:1"
     x="37.884998"
     y="79.238991"
     id="text256-8"><tspan
       sodipodi:role="line"
       id="tspan256-7"
       style="font-size:13px;fill:#262626;fill-opacity:1;stroke:none;stroke-width:1.5"
       x="37.884998"
       y="79.238991">12</tspan></text>
  <text
     xml:space="preserve"
     style="font-size:13px;line-height:1.1;font-family:sans;-inkscape-font-specification:sans;text-align:start;letter-spacing:0px;writing-mode:lr-tb;direction:ltr;text-anchor:start;fill:#262626;fill-opacity:1;stroke:none;stroke-width:1.5;stroke-linecap:square;stroke-linejoin:round;stroke-dasharray:none;stroke-opacity:1"
     x="37.44701"
     y="114.54683"
     id="text256-8-0"><tspan
       sodipodi:role="line"
       id="tspan256-7-2"
       style="font-size:13px;fill:#262626;fill-opacity:1;stroke:none;stroke-width:1.5"
       x="37.44701"
       y="114.54683">10</tspan></text>
  <text
     xml:space="preserve"
     style="font-size:13px;line-height:1.1;font-family:sans;-inkscape-font-specification:sans;text-align:start;letter-spacing:0px;writing-mode:lr-tb;direction:ltr;text-anchor:start;fill:#262626;fill-opacity:1;stroke:none;stroke-width:1.5;stroke-linecap:square;stroke-linejoin:round;stroke-dasharray:none;stroke-opacity:1"
     x="45.743397"
     y="149.94672"
     id="text256-8-5"><tspan
       sodipodi:role="line"
       id="tspan256-7-9"
       style="font-size:13px;fill:#262626;fill-opacity:1;stroke:none;stroke-width:1.5"
       x="45.743397"
       y="149.94672">8</tspan></text>
  <text
     xml:space="preserve"
     style="font-size:13px;line-height:1.1;font-family:sans;-inkscape-font-specification:sans;text-align:start;letter-spacing:0px;writing-mode:lr-tb;direction:ltr;text-anchor:start;fill:#262626;fill-opacity:1;stroke:none;stroke-width:1.5;stroke-linecap:square;stroke-linejoin:round;stroke-dasharray:none;stroke-opacity:1"
     x="45.673573"
     y="185.34659"
     id="text256-8-8"><tspan
       sodipodi:role="line"
       id="tspan256-7-97"
       style="font-size:13px;fill:#262626;fill-opacity:1;stroke:none;stroke-width:1.5"
       x="45.673573"
       y="185.34659">6</tspan></text>
  <text
     xml:space="preserve"
     style="font-size:13px;line-height:1.1;font-family:sans;-inkscape-font-specification:sans;text-align:start;letter-spacing:0px;writing-mode:lr-tb;direction:ltr;text-anchor:start;fill:#262626;fill-opacity:1;stroke:none;stroke-width:1.5;stroke-linecap:square;stroke-linejoin:round;stroke-dasharray:none;stroke-opacity:1"
     x="45.584705"
     y="220.75282"
     id="text256-8-1"><tspan
       sodipodi:role="line"
       id="tspan256-7-29"
       style="font-size:13px;fill:#262626;fill-opacity:1;stroke:none;stroke-width:1.5"
       x="45.584705"
       y="220.75282">4</tspan></text>
  <text
     xml:space="preserve"
     style="font-size:13px;line-height:1.1;font-family:sans;-inkscape-font-specification:sans;text-align:start;letter-spacing:0px;writing-mode:lr-tb;direction:ltr;text-anchor:start;fill:#262626;fill-opacity:1;stroke:none;stroke-width:1.5;stroke-linecap:square;stroke-linejoin:round;stroke-dasharray:none;stroke-opacity:1"
     x="46.155994"
     y="256.2384"
     id="text256-8-9"><tspan
       sodipodi:role="line"
       id="tspan256-7-4"
       style="font-size:13px;fill:#262626;fill-opacity:1;stroke:none;stroke-width:1.5"
       x="46.155994"
       y="256.2384">2</tspan></text>
  <text
     xml:space="preserve"
     style="font-size:13px;line-height:1.1;font-family:sans;-inkscape-font-specification:sans;text-align:start;letter-spacing:0px;writing-mode:lr-tb;direction:ltr;text-anchor:start;fill:#262626;fill-opacity:1;stroke:none;stroke-width:1.5;stroke-linecap:square;stroke-linejoin:round;stroke-dasharray:none;stroke-opacity:1"
     x="45.718006"
     y="291.54623"
     id="text256-8-4"><tspan
       sodipodi:role="line"
       id="tspan256-7-5"
       style="font-size:13px;fill:#262626;fill-opacity:1;stroke:none;stroke-width:1.5"
       x="45.718006"
       y="291.54623">0</tspan></text>
</svg>
